<?xml version="1.0" encoding="UTF-8" standalone="no"?>
<svg xmlns:ffdec="https://www.free-decompiler.com/flash" xmlns:xlink="http://www.w3.org/1999/xlink" ffdec:objectType="shape" height="816.0px" width="1683.0px" xmlns="http://www.w3.org/2000/svg">
  <g transform="matrix(1.0, 0.0, 0.0, 1.0, 0.0, 0.0)">
    <path d="M1632.0 816.0 L1581.0 816.0 1581.0 765.0 1530.0 765.0 1530.0 714.0 1581.0 714.0 1581.0 663.0 1530.0 663.0 1530.0 612.0 1581.0 612.0 1581.0 561.0 1530.0 561.0 1530.0 510.0 1581.0 510.0 1581.0 459.0 1530.0 459.0 1530.0 408.0 1581.0 408.0 1581.0 357.0 1530.0 357.0 1530.0 306.0 1581.0 306.0 1581.0 255.0 1530.0 255.0 1530.0 204.0 1581.0 204.0 1581.0 153.0 1530.0 153.0 1530.0 102.0 1581.0 102.0 1581.0 51.0 1530.0 51.0 1530.0 0.0 1581.0 0.0 1581.0 51.0 1632.0 51.0 1632.0 102.0 1581.0 102.0 1581.0 153.0 1632.0 153.0 1632.0 204.0 1581.0 204.0 1581.0 255.0 1632.0 255.0 1632.0 306.0 1581.0 306.0 1581.0 357.0 1632.0 357.0 1632.0 408.0 1581.0 408.0 1581.0 459.0 1632.0 459.0 1632.0 510.0 1581.0 510.0 1581.0 561.0 1632.0 561.0 1632.0 612.0 1581.0 612.0 1581.0 663.0 1632.0 663.0 1632.0 714.0 1581.0 714.0 1581.0 765.0 1632.0 765.0 1632.0 816.0 M1530.0 816.0 L1479.0 816.0 1479.0 765.0 1428.0 765.0 1428.0 714.0 1479.0 714.0 1479.0 663.0 1428.0 663.0 1428.0 612.0 1479.0 612.0 1479.0 561.0 1428.0 561.0 1428.0 510.0 1479.0 510.0 1479.0 459.0 1428.0 459.0 1428.0 408.0 1479.0 408.0 1479.0 357.0 1428.0 357.0 1428.0 306.0 1479.0 306.0 1479.0 255.0 1428.0 255.0 1428.0 204.0 1479.0 204.0 1479.0 153.0 1428.0 153.0 1428.0 204.0 1377.0 204.0 1377.0 153.0 1428.0 153.0 1428.0 102.0 1479.0 102.0 1479.0 51.0 1530.0 51.0 1530.0 102.0 1479.0 102.0 1479.0 153.0 1530.0 153.0 1530.0 204.0 1479.0 204.0 1479.0 255.0 1530.0 255.0 1530.0 306.0 1479.0 306.0 1479.0 357.0 1530.0 357.0 1530.0 408.0 1479.0 408.0 1479.0 459.0 1530.0 459.0 1530.0 510.0 1479.0 510.0 1479.0 561.0 1530.0 561.0 1530.0 612.0 1479.0 612.0 1479.0 663.0 1530.0 663.0 1530.0 714.0 1479.0 714.0 1479.0 765.0 1530.0 765.0 1530.0 816.0 M1428.0 816.0 L1377.0 816.0 1377.0 765.0 1326.0 765.0 1326.0 714.0 1377.0 714.0 1377.0 663.0 1326.0 663.0 1326.0 612.0 1377.0 612.0 1377.0 561.0 1326.0 561.0 1326.0 510.0 1377.0 510.0 1377.0 459.0 1326.0 459.0 1326.0 408.0 1377.0 408.0 1377.0 357.0 1428.0 357.0 1428.0 408.0 1377.0 408.0 1377.0 459.0 1428.0 459.0 1428.0 510.0 1377.0 510.0 1377.0 561.0 1428.0 561.0 1428.0 612.0 1377.0 612.0 1377.0 663.0 1428.0 663.0 1428.0 714.0 1377.0 714.0 1377.0 765.0 1428.0 765.0 1428.0 816.0 M1326.0 816.0 L1275.0 816.0 1275.0 765.0 1224.0 765.0 1224.0 714.0 1275.0 714.0 1275.0 663.0 1224.0 663.0 1224.0 612.0 1173.0 612.0 1173.0 561.0 1224.0 561.0 1224.0 510.0 1173.0 510.0 1173.0 459.0 1224.0 459.0 1224.0 408.0 1173.0 408.0 1173.0 357.0 1122.0 357.0 1122.0 306.0 1173.0 306.0 1173.0 357.0 1224.0 357.0 1224.0 408.0 1275.0 408.0 1275.0 459.0 1224.0 459.0 1224.0 510.0 1275.0 510.0 1275.0 561.0 1224.0 561.0 1224.0 612.0 1275.0 612.0 1275.0 663.0 1326.0 663.0 1326.0 714.0 1275.0 714.0 1275.0 765.0 1326.0 765.0 1326.0 816.0 M1224.0 816.0 L1173.0 816.0 1173.0 765.0 1122.0 765.0 1122.0 714.0 1173.0 714.0 1173.0 663.0 1122.0 663.0 1122.0 612.0 1071.0 612.0 1071.0 561.0 1122.0 561.0 1122.0 510.0 1071.0 510.0 1071.0 561.0 1020.0 561.0 1020.0 510.0 969.0 510.0 969.0 459.0 918.0 459.0 918.0 408.0 867.0 408.0 867.0 357.0 816.0 357.0 816.0 306.0 867.0 306.0 867.0 255.0 816.0 255.0 816.0 204.0 765.0 204.0 765.0 153.0 714.0 153.0 714.0 102.0 663.0 102.0 663.0 51.0 612.0 51.0 612.0 102.0 663.0 102.0 663.0 153.0 714.0 153.0 714.0 204.0 765.0 204.0 765.0 255.0 816.0 255.0 816.0 306.0 765.0 306.0 765.0 357.0 816.0 357.0 816.0 408.0 867.0 408.0 867.0 459.0 918.0 459.0 918.0 510.0 969.0 510.0 969.0 561.0 1020.0 561.0 1020.0 612.0 1071.0 612.0 1071.0 663.0 1122.0 663.0 1122.0 714.0 1071.0 714.0 1071.0 765.0 1122.0 765.0 1122.0 816.0 1071.0 816.0 1071.0 765.0 1020.0 765.0 1020.0 714.0 1071.0 714.0 1071.0 663.0 1020.0 663.0 1020.0 612.0 969.0 612.0 969.0 561.0 918.0 561.0 918.0 510.0 867.0 510.0 867.0 459.0 816.0 459.0 816.0 408.0 765.0 408.0 765.0 357.0 714.0 357.0 714.0 306.0 765.0 306.0 765.0 255.0 714.0 255.0 714.0 306.0 663.0 306.0 663.0 255.0 714.0 255.0 714.0 204.0 663.0 204.0 663.0 255.0 612.0 255.0 612.0 204.0 663.0 204.0 663.0 153.0 612.0 153.0 612.0 102.0 561.0 102.0 561.0 51.0 510.0 51.0 510.0 0.0 561.0 0.0 561.0 51.0 612.0 51.0 612.0 0.0 663.0 0.0 663.0 51.0 714.0 51.0 714.0 102.0 765.0 102.0 765.0 51.0 816.0 51.0 816.0 0.0 867.0 0.0 867.0 51.0 816.0 51.0 816.0 102.0 867.0 102.0 867.0 51.0 918.0 51.0 918.0 102.0 969.0 102.0 969.0 51.0 1020.0 51.0 1020.0 0.0 1071.0 0.0 1071.0 51.0 1020.0 51.0 1020.0 102.0 969.0 102.0 969.0 153.0 1020.0 153.0 1020.0 102.0 1071.0 102.0 1071.0 153.0 1020.0 153.0 1020.0 204.0 1071.0 204.0 1071.0 153.0 1122.0 153.0 1122.0 204.0 1173.0 204.0 1173.0 255.0 1224.0 255.0 1224.0 204.0 1275.0 204.0 1275.0 255.0 1326.0 255.0 1326.0 204.0 1377.0 204.0 1377.0 255.0 1326.0 255.0 1326.0 306.0 1275.0 306.0 1275.0 357.0 1326.0 357.0 1326.0 306.0 1377.0 306.0 1377.0 357.0 1326.0 357.0 1326.0 408.0 1275.0 408.0 1275.0 357.0 1224.0 357.0 1224.0 306.0 1275.0 306.0 1275.0 255.0 1224.0 255.0 1224.0 306.0 1173.0 306.0 1173.0 255.0 1122.0 255.0 1122.0 306.0 1071.0 306.0 1071.0 255.0 1122.0 255.0 1122.0 204.0 1071.0 204.0 1071.0 255.0 1020.0 255.0 1020.0 306.0 969.0 306.0 969.0 357.0 1020.0 357.0 1020.0 306.0 1071.0 306.0 1071.0 357.0 1020.0 357.0 1020.0 408.0 1071.0 408.0 1071.0 357.0 1122.0 357.0 1122.0 408.0 1071.0 408.0 1071.0 459.0 1020.0 459.0 1020.0 408.0 969.0 408.0 969.0 357.0 918.0 357.0 918.0 306.0 969.0 306.0 969.0 255.0 918.0 255.0 918.0 204.0 969.0 204.0 969.0 153.0 918.0 153.0 918.0 204.0 867.0 204.0 867.0 153.0 918.0 153.0 918.0 102.0 867.0 102.0 867.0 153.0 816.0 153.0 816.0 204.0 867.0 204.0 867.0 255.0 918.0 255.0 918.0 306.0 867.0 306.0 867.0 357.0 918.0 357.0 918.0 408.0 969.0 408.0 969.0 459.0 1020.0 459.0 1020.0 510.0 1071.0 510.0 1071.0 459.0 1122.0 459.0 1122.0 408.0 1173.0 408.0 1173.0 459.0 1122.0 459.0 1122.0 510.0 1173.0 510.0 1173.0 561.0 1122.0 561.0 1122.0 612.0 1173.0 612.0 1173.0 663.0 1224.0 663.0 1224.0 714.0 1173.0 714.0 1173.0 765.0 1224.0 765.0 1224.0 816.0 M1020.0 816.0 L969.0 816.0 969.0 765.0 918.0 765.0 918.0 714.0 969.0 714.0 969.0 663.0 918.0 663.0 918.0 612.0 867.0 612.0 867.0 561.0 816.0 561.0 816.0 510.0 867.0 510.0 867.0 561.0 918.0 561.0 918.0 612.0 969.0 612.0 969.0 663.0 1020.0 663.0 1020.0 714.0 969.0 714.0 969.0 765.0 1020.0 765.0 1020.0 816.0 M918.0 816.0 L867.0 816.0 867.0 765.0 816.0 765.0 816.0 714.0 867.0 714.0 867.0 765.0 918.0 765.0 918.0 816.0 M816.0 816.0 L765.0 816.0 765.0 765.0 714.0 765.0 714.0 714.0 765.0 714.0 765.0 765.0 816.0 765.0 816.0 816.0 M714.0 816.0 L663.0 816.0 663.0 765.0 714.0 765.0 714.0 816.0 M612.0 816.0 L561.0 816.0 561.0 765.0 510.0 765.0 510.0 714.0 561.0 714.0 561.0 663.0 510.0 663.0 510.0 612.0 561.0 612.0 561.0 561.0 510.0 561.0 510.0 510.0 561.0 510.0 561.0 459.0 510.0 459.0 510.0 408.0 561.0 408.0 561.0 357.0 510.0 357.0 510.0 306.0 459.0 306.0 459.0 357.0 408.0 357.0 408.0 408.0 357.0 408.0 357.0 357.0 408.0 357.0 408.0 306.0 357.0 306.0 357.0 357.0 306.0 357.0 306.0 306.0 255.0 306.0 255.0 255.0 306.0 255.0 306.0 204.0 255.0 204.0 255.0 255.0 204.0 255.0 204.0 204.0 153.0 204.0 153.0 153.0 102.0 153.0 102.0 102.0 51.0 102.0 51.0 153.0 0.0 153.0 0.0 102.0 51.0 102.0 51.0 51.0 0.0 51.0 0.0 0.0 51.0 0.0 51.0 51.0 102.0 51.0 102.0 0.0 153.0 0.0 153.0 51.0 204.0 51.0 204.0 0.0 255.0 0.0 255.0 51.0 306.0 51.0 306.0 0.0 357.0 0.0 357.0 51.0 408.0 51.0 408.0 0.0 459.0 0.0 459.0 51.0 510.0 51.0 510.0 102.0 561.0 102.0 561.0 153.0 612.0 153.0 612.0 204.0 561.0 204.0 561.0 255.0 612.0 255.0 612.0 306.0 663.0 306.0 663.0 357.0 714.0 357.0 714.0 408.0 765.0 408.0 765.0 459.0 816.0 459.0 816.0 510.0 765.0 510.0 765.0 459.0 714.0 459.0 714.0 408.0 663.0 408.0 663.0 357.0 612.0 357.0 612.0 306.0 561.0 306.0 561.0 255.0 510.0 255.0 510.0 204.0 459.0 204.0 459.0 153.0 408.0 153.0 408.0 204.0 357.0 204.0 357.0 153.0 408.0 153.0 408.0 102.0 357.0 102.0 357.0 153.0 306.0 153.0 306.0 102.0 357.0 102.0 357.0 51.0 306.0 51.0 306.0 102.0 255.0 102.0 255.0 51.0 204.0 51.0 204.0 102.0 153.0 102.0 153.0 153.0 204.0 153.0 204.0 102.0 255.0 102.0 255.0 153.0 204.0 153.0 204.0 204.0 255.0 204.0 255.0 153.0 306.0 153.0 306.0 204.0 357.0 204.0 357.0 255.0 408.0 255.0 408.0 204.0 459.0 204.0 459.0 255.0 510.0 255.0 510.0 306.0 561.0 306.0 561.0 357.0 612.0 357.0 612.0 408.0 561.0 408.0 561.0 459.0 612.0 459.0 612.0 510.0 561.0 510.0 561.0 561.0 612.0 561.0 612.0 612.0 561.0 612.0 561.0 663.0 612.0 663.0 612.0 714.0 561.0 714.0 561.0 765.0 612.0 765.0 612.0 816.0 M510.0 816.0 L459.0 816.0 459.0 765.0 408.0 765.0 408.0 714.0 459.0 714.0 459.0 663.0 408.0 663.0 408.0 612.0 459.0 612.0 459.0 561.0 408.0 561.0 408.0 510.0 459.0 510.0 459.0 459.0 408.0 459.0 408.0 510.0 357.0 510.0 357.0 459.0 306.0 459.0 306.0 408.0 255.0 408.0 255.0 357.0 204.0 357.0 204.0 306.0 153.0 306.0 153.0 357.0 102.0 357.0 102.0 306.0 51.0 306.0 51.0 357.0 0.0 357.0 0.0 306.0 51.0 306.0 51.0 255.0 0.0 255.0 0.0 204.0 51.0 204.0 51.0 153.0 102.0 153.0 102.0 204.0 51.0 204.0 51.0 255.0 102.0 255.0 102.0 204.0 153.0 204.0 153.0 255.0 102.0 255.0 102.0 306.0 153.0 306.0 153.0 255.0 204.0 255.0 204.0 306.0 255.0 306.0 255.0 357.0 306.0 357.0 306.0 408.0 357.0 408.0 357.0 459.0 408.0 459.0 408.0 408.0 459.0 408.0 459.0 357.0 510.0 357.0 510.0 408.0 459.0 408.0 459.0 459.0 510.0 459.0 510.0 510.0 459.0 510.0 459.0 561.0 510.0 561.0 510.0 612.0 459.0 612.0 459.0 663.0 510.0 663.0 510.0 714.0 459.0 714.0 459.0 765.0 510.0 765.0 510.0 816.0 M408.0 816.0 L357.0 816.0 357.0 765.0 306.0 765.0 306.0 714.0 357.0 714.0 357.0 663.0 306.0 663.0 306.0 612.0 357.0 612.0 357.0 561.0 306.0 561.0 306.0 612.0 255.0 612.0 255.0 663.0 204.0 663.0 204.0 612.0 153.0 612.0 153.0 561.0 102.0 561.0 102.0 510.0 153.0 510.0 153.0 459.0 102.0 459.0 102.0 408.0 153.0 408.0 153.0 459.0 204.0 459.0 204.0 408.0 255.0 408.0 255.0 459.0 306.0 459.0 306.0 510.0 357.0 510.0 357.0 561.0 408.0 561.0 408.0 612.0 357.0 612.0 357.0 663.0 408.0 663.0 408.0 714.0 357.0 714.0 357.0 765.0 408.0 765.0 408.0 816.0 M306.0 816.0 L255.0 816.0 255.0 765.0 204.0 765.0 204.0 714.0 153.0 714.0 153.0 663.0 102.0 663.0 102.0 612.0 153.0 612.0 153.0 663.0 204.0 663.0 204.0 714.0 255.0 714.0 255.0 663.0 306.0 663.0 306.0 714.0 255.0 714.0 255.0 765.0 306.0 765.0 306.0 816.0 M204.0 816.0 L153.0 816.0 153.0 765.0 102.0 765.0 102.0 714.0 51.0 714.0 51.0 765.0 0.0 765.0 0.0 714.0 51.0 714.0 51.0 663.0 0.0 663.0 0.0 612.0 51.0 612.0 51.0 561.0 0.0 561.0 0.0 510.0 51.0 510.0 51.0 459.0 0.0 459.0 0.0 408.0 51.0 408.0 51.0 357.0 102.0 357.0 102.0 408.0 51.0 408.0 51.0 459.0 102.0 459.0 102.0 510.0 51.0 510.0 51.0 561.0 102.0 561.0 102.0 612.0 51.0 612.0 51.0 663.0 102.0 663.0 102.0 714.0 153.0 714.0 153.0 765.0 204.0 765.0 204.0 816.0 M102.0 816.0 L51.0 816.0 51.0 765.0 102.0 765.0 102.0 816.0 M714.0 0.0 L765.0 0.0 765.0 51.0 714.0 51.0 714.0 0.0 M918.0 0.0 L969.0 0.0 969.0 51.0 918.0 51.0 918.0 0.0 M1122.0 0.0 L1173.0 0.0 1173.0 51.0 1224.0 51.0 1224.0 0.0 1275.0 0.0 1275.0 51.0 1224.0 51.0 1224.0 102.0 1275.0 102.0 1275.0 153.0 1326.0 153.0 1326.0 102.0 1377.0 102.0 1377.0 153.0 1326.0 153.0 1326.0 204.0 1275.0 204.0 1275.0 153.0 1224.0 153.0 1224.0 204.0 1173.0 204.0 1173.0 153.0 1224.0 153.0 1224.0 102.0 1173.0 102.0 1173.0 153.0 1122.0 153.0 1122.0 102.0 1173.0 102.0 1173.0 51.0 1122.0 51.0 1122.0 0.0 M1326.0 0.0 L1377.0 0.0 1377.0 51.0 1326.0 51.0 1326.0 0.0 M1428.0 0.0 L1479.0 0.0 1479.0 51.0 1428.0 51.0 1428.0 0.0 M1377.0 51.0 L1428.0 51.0 1428.0 102.0 1377.0 102.0 1377.0 51.0 M1377.0 255.0 L1428.0 255.0 1428.0 306.0 1377.0 306.0 1377.0 255.0 M1326.0 51.0 L1326.0 102.0 1275.0 102.0 1275.0 51.0 1326.0 51.0 M1326.0 459.0 L1326.0 510.0 1275.0 510.0 1275.0 459.0 1326.0 459.0 M1326.0 561.0 L1326.0 612.0 1275.0 612.0 1275.0 561.0 1326.0 561.0 M1071.0 51.0 L1122.0 51.0 1122.0 102.0 1071.0 102.0 1071.0 51.0 M1020.0 204.0 L969.0 204.0 969.0 255.0 1020.0 255.0 1020.0 204.0 M816.0 102.0 L765.0 102.0 765.0 153.0 816.0 153.0 816.0 102.0 M714.0 561.0 L714.0 510.0 765.0 510.0 765.0 561.0 714.0 561.0 714.0 612.0 663.0 612.0 663.0 561.0 612.0 561.0 612.0 510.0 663.0 510.0 663.0 561.0 714.0 561.0 M663.0 459.0 L714.0 459.0 714.0 510.0 663.0 510.0 663.0 459.0 612.0 459.0 612.0 408.0 663.0 408.0 663.0 459.0 M765.0 663.0 L816.0 663.0 816.0 612.0 765.0 612.0 765.0 663.0 714.0 663.0 714.0 612.0 765.0 612.0 765.0 561.0 816.0 561.0 816.0 612.0 867.0 612.0 867.0 663.0 816.0 663.0 816.0 714.0 765.0 714.0 765.0 663.0 M663.0 714.0 L663.0 765.0 612.0 765.0 612.0 714.0 663.0 714.0 663.0 663.0 714.0 663.0 714.0 714.0 663.0 714.0 M663.0 612.0 L663.0 663.0 612.0 663.0 612.0 612.0 663.0 612.0 M867.0 714.0 L867.0 663.0 918.0 663.0 918.0 714.0 867.0 714.0 M510.0 153.0 L510.0 204.0 561.0 204.0 561.0 153.0 510.0 153.0 510.0 102.0 459.0 102.0 459.0 153.0 510.0 153.0 M408.0 51.0 L408.0 102.0 459.0 102.0 459.0 51.0 408.0 51.0 M408.0 255.0 L408.0 306.0 459.0 306.0 459.0 255.0 408.0 255.0 M357.0 255.0 L306.0 255.0 306.0 306.0 357.0 306.0 357.0 255.0 M102.0 51.0 L102.0 102.0 153.0 102.0 153.0 51.0 102.0 51.0 M153.0 357.0 L204.0 357.0 204.0 408.0 153.0 408.0 153.0 357.0 M204.0 561.0 L204.0 510.0 255.0 510.0 255.0 561.0 204.0 561.0 204.0 612.0 255.0 612.0 255.0 561.0 306.0 561.0 306.0 510.0 255.0 510.0 255.0 459.0 204.0 459.0 204.0 510.0 153.0 510.0 153.0 561.0 204.0 561.0" fill="#000000" fill-rule="evenodd" stroke="none"/>
    <path d="M1581.0 0.0 L1632.0 0.0 1632.0 51.0 1683.0 51.0 1683.0 102.0 1632.0 102.0 1632.0 153.0 1683.0 153.0 1683.0 204.0 1632.0 204.0 1632.0 255.0 1683.0 255.0 1683.0 306.0 1632.0 306.0 1632.0 357.0 1683.0 357.0 1683.0 408.0 1632.0 408.0 1632.0 459.0 1683.0 459.0 1683.0 510.0 1632.0 510.0 1632.0 561.0 1683.0 561.0 1683.0 612.0 1632.0 612.0 1632.0 663.0 1683.0 663.0 1683.0 714.0 1632.0 714.0 1632.0 765.0 1683.0 765.0 1683.0 816.0 1632.0 816.0 1632.0 765.0 1581.0 765.0 1581.0 714.0 1632.0 714.0 1632.0 663.0 1581.0 663.0 1581.0 612.0 1632.0 612.0 1632.0 561.0 1581.0 561.0 1581.0 510.0 1632.0 510.0 1632.0 459.0 1581.0 459.0 1581.0 408.0 1632.0 408.0 1632.0 357.0 1581.0 357.0 1581.0 306.0 1632.0 306.0 1632.0 255.0 1581.0 255.0 1581.0 204.0 1632.0 204.0 1632.0 153.0 1581.0 153.0 1581.0 102.0 1632.0 102.0 1632.0 51.0 1581.0 51.0 1581.0 0.0 M1581.0 816.0 L1530.0 816.0 1530.0 765.0 1479.0 765.0 1479.0 714.0 1530.0 714.0 1530.0 663.0 1479.0 663.0 1479.0 612.0 1530.0 612.0 1530.0 561.0 1479.0 561.0 1479.0 510.0 1530.0 510.0 1530.0 459.0 1479.0 459.0 1479.0 408.0 1530.0 408.0 1530.0 357.0 1479.0 357.0 1479.0 306.0 1530.0 306.0 1530.0 255.0 1479.0 255.0 1479.0 204.0 1530.0 204.0 1530.0 153.0 1479.0 153.0 1479.0 102.0 1530.0 102.0 1530.0 51.0 1479.0 51.0 1479.0 0.0 1530.0 0.0 1530.0 51.0 1581.0 51.0 1581.0 102.0 1530.0 102.0 1530.0 153.0 1581.0 153.0 1581.0 204.0 1530.0 204.0 1530.0 255.0 1581.0 255.0 1581.0 306.0 1530.0 306.0 1530.0 357.0 1581.0 357.0 1581.0 408.0 1530.0 408.0 1530.0 459.0 1581.0 459.0 1581.0 510.0 1530.0 510.0 1530.0 561.0 1581.0 561.0 1581.0 612.0 1530.0 612.0 1530.0 663.0 1581.0 663.0 1581.0 714.0 1530.0 714.0 1530.0 765.0 1581.0 765.0 1581.0 816.0 M1479.0 816.0 L1428.0 816.0 1428.0 765.0 1377.0 765.0 1377.0 714.0 1428.0 714.0 1428.0 663.0 1377.0 663.0 1377.0 612.0 1428.0 612.0 1428.0 561.0 1377.0 561.0 1377.0 510.0 1428.0 510.0 1428.0 459.0 1377.0 459.0 1377.0 408.0 1428.0 408.0 1428.0 357.0 1377.0 357.0 1377.0 408.0 1326.0 408.0 1326.0 357.0 1377.0 357.0 1377.0 306.0 1326.0 306.0 1326.0 357.0 1275.0 357.0 1275.0 306.0 1326.0 306.0 1326.0 255.0 1377.0 255.0 1377.0 204.0 1326.0 204.0 1326.0 153.0 1377.0 153.0 1377.0 102.0 1326.0 102.0 1326.0 153.0 1275.0 153.0 1275.0 102.0 1224.0 102.0 1224.0 51.0 1275.0 51.0 1275.0 0.0 1326.0 0.0 1326.0 51.0 1377.0 51.0 1377.0 0.0 1428.0 0.0 1428.0 51.0 1479.0 51.0 1479.0 102.0 1428.0 102.0 1428.0 153.0 1377.0 153.0 1377.0 204.0 1428.0 204.0 1428.0 153.0 1479.0 153.0 1479.0 204.0 1428.0 204.0 1428.0 255.0 1479.0 255.0 1479.0 306.0 1428.0 306.0 1428.0 357.0 1479.0 357.0 1479.0 408.0 1428.0 408.0 1428.0 459.0 1479.0 459.0 1479.0 510.0 1428.0 510.0 1428.0 561.0 1479.0 561.0 1479.0 612.0 1428.0 612.0 1428.0 663.0 1479.0 663.0 1479.0 714.0 1428.0 714.0 1428.0 765.0 1479.0 765.0 1479.0 816.0 M1377.0 816.0 L1326.0 816.0 1326.0 765.0 1275.0 765.0 1275.0 714.0 1326.0 714.0 1326.0 663.0 1377.0 663.0 1377.0 714.0 1326.0 714.0 1326.0 765.0 1377.0 765.0 1377.0 816.0 M1275.0 816.0 L1224.0 816.0 1224.0 765.0 1173.0 765.0 1173.0 714.0 1224.0 714.0 1224.0 663.0 1173.0 663.0 1173.0 612.0 1122.0 612.0 1122.0 561.0 1173.0 561.0 1173.0 510.0 1122.0 510.0 1122.0 459.0 1173.0 459.0 1173.0 408.0 1122.0 408.0 1122.0 459.0 1071.0 459.0 1071.0 510.0 1020.0 510.0 1020.0 459.0 969.0 459.0 969.0 408.0 918.0 408.0 918.0 357.0 867.0 357.0 867.0 306.0 918.0 306.0 918.0 255.0 867.0 255.0 867.0 204.0 816.0 204.0 816.0 153.0 867.0 153.0 867.0 102.0 918.0 102.0 918.0 153.0 867.0 153.0 867.0 204.0 918.0 204.0 918.0 153.0 969.0 153.0 969.0 204.0 918.0 204.0 918.0 255.0 969.0 255.0 969.0 306.0 918.0 306.0 918.0 357.0 969.0 357.0 969.0 408.0 1020.0 408.0 1020.0 459.0 1071.0 459.0 1071.0 408.0 1122.0 408.0 1122.0 357.0 1071.0 357.0 1071.0 408.0 1020.0 408.0 1020.0 357.0 1071.0 357.0 1071.0 306.0 1020.0 306.0 1020.0 357.0 969.0 357.0 969.0 306.0 1020.0 306.0 1020.0 255.0 1071.0 255.0 1071.0 204.0 1122.0 204.0 1122.0 255.0 1071.0 255.0 1071.0 306.0 1122.0 306.0 1122.0 255.0 1173.0 255.0 1173.0 306.0 1224.0 306.0 1224.0 255.0 1275.0 255.0 1275.0 306.0 1224.0 306.0 1224.0 357.0 1275.0 357.0 1275.0 408.0 1326.0 408.0 1326.0 459.0 1377.0 459.0 1377.0 510.0 1326.0 510.0 1326.0 561.0 1377.0 561.0 1377.0 612.0 1326.0 612.0 1326.0 663.0 1275.0 663.0 1275.0 612.0 1224.0 612.0 1224.0 561.0 1275.0 561.0 1275.0 510.0 1224.0 510.0 1224.0 459.0 1275.0 459.0 1275.0 408.0 1224.0 408.0 1224.0 357.0 1173.0 357.0 1173.0 306.0 1122.0 306.0 1122.0 357.0 1173.0 357.0 1173.0 408.0 1224.0 408.0 1224.0 459.0 1173.0 459.0 1173.0 510.0 1224.0 510.0 1224.0 561.0 1173.0 561.0 1173.0 612.0 1224.0 612.0 1224.0 663.0 1275.0 663.0 1275.0 714.0 1224.0 714.0 1224.0 765.0 1275.0 765.0 1275.0 816.0 M1173.0 816.0 L1122.0 816.0 1122.0 765.0 1071.0 765.0 1071.0 714.0 1122.0 714.0 1122.0 663.0 1071.0 663.0 1071.0 612.0 1020.0 612.0 1020.0 561.0 969.0 561.0 969.0 510.0 918.0 510.0 918.0 459.0 867.0 459.0 867.0 408.0 816.0 408.0 816.0 357.0 765.0 357.0 765.0 306.0 816.0 306.0 816.0 255.0 765.0 255.0 765.0 204.0 816.0 204.0 816.0 255.0 867.0 255.0 867.0 306.0 816.0 306.0 816.0 357.0 867.0 357.0 867.0 408.0 918.0 408.0 918.0 459.0 969.0 459.0 969.0 510.0 1020.0 510.0 1020.0 561.0 1071.0 561.0 1071.0 510.0 1122.0 510.0 1122.0 561.0 1071.0 561.0 1071.0 612.0 1122.0 612.0 1122.0 663.0 1173.0 663.0 1173.0 714.0 1122.0 714.0 1122.0 765.0 1173.0 765.0 1173.0 816.0 M1071.0 816.0 L1020.0 816.0 1020.0 765.0 969.0 765.0 969.0 714.0 1020.0 714.0 1020.0 663.0 969.0 663.0 969.0 612.0 918.0 612.0 918.0 561.0 867.0 561.0 867.0 510.0 816.0 510.0 816.0 459.0 765.0 459.0 765.0 408.0 714.0 408.0 714.0 357.0 663.0 357.0 663.0 306.0 714.0 306.0 714.0 255.0 765.0 255.0 765.0 306.0 714.0 306.0 714.0 357.0 765.0 357.0 765.0 408.0 816.0 408.0 816.0 459.0 867.0 459.0 867.0 510.0 918.0 510.0 918.0 561.0 969.0 561.0 969.0 612.0 1020.0 612.0 1020.0 663.0 1071.0 663.0 1071.0 714.0 1020.0 714.0 1020.0 765.0 1071.0 765.0 1071.0 816.0 M969.0 816.0 L918.0 816.0 918.0 765.0 867.0 765.0 867.0 714.0 816.0 714.0 816.0 765.0 867.0 765.0 867.0 816.0 816.0 816.0 816.0 765.0 765.0 765.0 765.0 714.0 714.0 714.0 714.0 765.0 663.0 765.0 663.0 816.0 612.0 816.0 612.0 765.0 561.0 765.0 561.0 714.0 612.0 714.0 612.0 663.0 561.0 663.0 561.0 612.0 612.0 612.0 612.0 561.0 561.0 561.0 561.0 510.0 612.0 510.0 612.0 459.0 561.0 459.0 561.0 408.0 612.0 408.0 612.0 357.0 561.0 357.0 561.0 306.0 510.0 306.0 510.0 255.0 459.0 255.0 459.0 204.0 510.0 204.0 510.0 255.0 561.0 255.0 561.0 306.0 612.0 306.0 612.0 357.0 663.0 357.0 663.0 408.0 714.0 408.0 714.0 459.0 765.0 459.0 765.0 510.0 816.0 510.0 816.0 561.0 867.0 561.0 867.0 612.0 918.0 612.0 918.0 663.0 969.0 663.0 969.0 714.0 918.0 714.0 918.0 765.0 969.0 765.0 969.0 816.0 M765.0 816.0 L714.0 816.0 714.0 765.0 765.0 765.0 765.0 816.0 M561.0 816.0 L510.0 816.0 510.0 765.0 459.0 765.0 459.0 714.0 510.0 714.0 510.0 663.0 459.0 663.0 459.0 612.0 510.0 612.0 510.0 561.0 459.0 561.0 459.0 510.0 510.0 510.0 510.0 459.0 459.0 459.0 459.0 408.0 510.0 408.0 510.0 357.0 459.0 357.0 459.0 306.0 510.0 306.0 510.0 357.0 561.0 357.0 561.0 408.0 510.0 408.0 510.0 459.0 561.0 459.0 561.0 510.0 510.0 510.0 510.0 561.0 561.0 561.0 561.0 612.0 510.0 612.0 510.0 663.0 561.0 663.0 561.0 714.0 510.0 714.0 510.0 765.0 561.0 765.0 561.0 816.0 M459.0 816.0 L408.0 816.0 408.0 765.0 357.0 765.0 357.0 714.0 408.0 714.0 408.0 663.0 357.0 663.0 357.0 612.0 408.0 612.0 408.0 561.0 357.0 561.0 357.0 510.0 306.0 510.0 306.0 459.0 255.0 459.0 255.0 408.0 204.0 408.0 204.0 357.0 153.0 357.0 153.0 306.0 204.0 306.0 204.0 357.0 255.0 357.0 255.0 408.0 306.0 408.0 306.0 459.0 357.0 459.0 357.0 510.0 408.0 510.0 408.0 459.0 459.0 459.0 459.0 510.0 408.0 510.0 408.0 561.0 459.0 561.0 459.0 612.0 408.0 612.0 408.0 663.0 459.0 663.0 459.0 714.0 408.0 714.0 408.0 765.0 459.0 765.0 459.0 816.0 M357.0 816.0 L306.0 816.0 306.0 765.0 255.0 765.0 255.0 714.0 306.0 714.0 306.0 663.0 255.0 663.0 255.0 714.0 204.0 714.0 204.0 663.0 153.0 663.0 153.0 612.0 102.0 612.0 102.0 561.0 51.0 561.0 51.0 510.0 102.0 510.0 102.0 459.0 51.0 459.0 51.0 408.0 102.0 408.0 102.0 459.0 153.0 459.0 153.0 510.0 102.0 510.0 102.0 561.0 153.0 561.0 153.0 612.0 204.0 612.0 204.0 663.0 255.0 663.0 255.0 612.0 306.0 612.0 306.0 561.0 357.0 561.0 357.0 612.0 306.0 612.0 306.0 663.0 357.0 663.0 357.0 714.0 306.0 714.0 306.0 765.0 357.0 765.0 357.0 816.0 M255.0 816.0 L204.0 816.0 204.0 765.0 153.0 765.0 153.0 714.0 102.0 714.0 102.0 663.0 51.0 663.0 51.0 612.0 102.0 612.0 102.0 663.0 153.0 663.0 153.0 714.0 204.0 714.0 204.0 765.0 255.0 765.0 255.0 816.0 M153.0 816.0 L102.0 816.0 102.0 765.0 51.0 765.0 51.0 714.0 102.0 714.0 102.0 765.0 153.0 765.0 153.0 816.0 M51.0 0.0 L102.0 0.0 102.0 51.0 51.0 51.0 51.0 0.0 M153.0 0.0 L204.0 0.0 204.0 51.0 255.0 51.0 255.0 102.0 306.0 102.0 306.0 51.0 357.0 51.0 357.0 0.0 408.0 0.0 408.0 51.0 357.0 51.0 357.0 102.0 306.0 102.0 306.0 153.0 357.0 153.0 357.0 102.0 408.0 102.0 408.0 153.0 357.0 153.0 357.0 204.0 408.0 204.0 408.0 153.0 459.0 153.0 459.0 204.0 408.0 204.0 408.0 255.0 357.0 255.0 357.0 204.0 306.0 204.0 306.0 153.0 255.0 153.0 255.0 204.0 204.0 204.0 204.0 153.0 255.0 153.0 255.0 102.0 204.0 102.0 204.0 153.0 153.0 153.0 153.0 102.0 204.0 102.0 204.0 51.0 153.0 51.0 153.0 0.0 M255.0 0.0 L306.0 0.0 306.0 51.0 255.0 51.0 255.0 0.0 M459.0 0.0 L510.0 0.0 510.0 51.0 561.0 51.0 561.0 102.0 612.0 102.0 612.0 153.0 663.0 153.0 663.0 102.0 612.0 102.0 612.0 51.0 663.0 51.0 663.0 102.0 714.0 102.0 714.0 153.0 663.0 153.0 663.0 204.0 612.0 204.0 612.0 255.0 663.0 255.0 663.0 204.0 714.0 204.0 714.0 255.0 663.0 255.0 663.0 306.0 612.0 306.0 612.0 255.0 561.0 255.0 561.0 204.0 612.0 204.0 612.0 153.0 561.0 153.0 561.0 102.0 510.0 102.0 510.0 51.0 459.0 51.0 459.0 0.0 M561.0 0.0 L612.0 0.0 612.0 51.0 561.0 51.0 561.0 0.0 M663.0 0.0 L714.0 0.0 714.0 51.0 765.0 51.0 765.0 0.0 816.0 0.0 816.0 51.0 867.0 51.0 867.0 0.0 918.0 0.0 918.0 51.0 969.0 51.0 969.0 0.0 1020.0 0.0 1020.0 51.0 1071.0 51.0 1071.0 0.0 1122.0 0.0 1122.0 51.0 1173.0 51.0 1173.0 0.0 1224.0 0.0 1224.0 51.0 1173.0 51.0 1173.0 102.0 1122.0 102.0 1122.0 153.0 1173.0 153.0 1173.0 102.0 1224.0 102.0 1224.0 153.0 1173.0 153.0 1173.0 204.0 1224.0 204.0 1224.0 153.0 1275.0 153.0 1275.0 204.0 1326.0 204.0 1326.0 255.0 1275.0 255.0 1275.0 204.0 1224.0 204.0 1224.0 255.0 1173.0 255.0 1173.0 204.0 1122.0 204.0 1122.0 153.0 1071.0 153.0 1071.0 204.0 1020.0 204.0 1020.0 153.0 1071.0 153.0 1071.0 102.0 1020.0 102.0 1020.0 153.0 969.0 153.0 969.0 102.0 1020.0 102.0 1020.0 51.0 969.0 51.0 969.0 102.0 918.0 102.0 918.0 51.0 867.0 51.0 867.0 102.0 816.0 102.0 816.0 51.0 765.0 51.0 765.0 102.0 714.0 102.0 714.0 51.0 663.0 51.0 663.0 0.0 M1377.0 51.0 L1377.0 102.0 1428.0 102.0 1428.0 51.0 1377.0 51.0 M1326.0 51.0 L1275.0 51.0 1275.0 102.0 1326.0 102.0 1326.0 51.0 M1377.0 255.0 L1377.0 306.0 1428.0 306.0 1428.0 255.0 1377.0 255.0 M1326.0 459.0 L1275.0 459.0 1275.0 510.0 1326.0 510.0 1326.0 459.0 M1326.0 561.0 L1275.0 561.0 1275.0 612.0 1326.0 612.0 1326.0 561.0 M1071.0 51.0 L1071.0 102.0 1122.0 102.0 1122.0 51.0 1071.0 51.0 M1020.0 204.0 L1020.0 255.0 969.0 255.0 969.0 204.0 1020.0 204.0 M816.0 102.0 L816.0 153.0 765.0 153.0 765.0 102.0 816.0 102.0 M714.0 153.0 L765.0 153.0 765.0 204.0 714.0 204.0 714.0 153.0 M663.0 408.0 L612.0 408.0 612.0 459.0 663.0 459.0 663.0 408.0 M663.0 459.0 L663.0 510.0 714.0 510.0 714.0 459.0 663.0 459.0 M663.0 561.0 L663.0 612.0 714.0 612.0 714.0 561.0 663.0 561.0 663.0 510.0 612.0 510.0 612.0 561.0 663.0 561.0 M714.0 561.0 L765.0 561.0 765.0 510.0 714.0 510.0 714.0 561.0 M765.0 663.0 L765.0 612.0 816.0 612.0 816.0 663.0 765.0 663.0 765.0 714.0 816.0 714.0 816.0 663.0 867.0 663.0 867.0 612.0 816.0 612.0 816.0 561.0 765.0 561.0 765.0 612.0 714.0 612.0 714.0 663.0 765.0 663.0 M663.0 612.0 L612.0 612.0 612.0 663.0 663.0 663.0 663.0 612.0 M663.0 663.0 L663.0 714.0 714.0 714.0 714.0 663.0 663.0 663.0 M663.0 714.0 L612.0 714.0 612.0 765.0 663.0 765.0 663.0 714.0 M867.0 714.0 L918.0 714.0 918.0 663.0 867.0 663.0 867.0 714.0 M408.0 51.0 L459.0 51.0 459.0 102.0 408.0 102.0 408.0 51.0 M510.0 153.0 L459.0 153.0 459.0 102.0 510.0 102.0 510.0 153.0 561.0 153.0 561.0 204.0 510.0 204.0 510.0 153.0 M357.0 357.0 L357.0 306.0 408.0 306.0 408.0 357.0 357.0 357.0 357.0 408.0 408.0 408.0 408.0 357.0 459.0 357.0 459.0 408.0 408.0 408.0 408.0 459.0 357.0 459.0 357.0 408.0 306.0 408.0 306.0 357.0 255.0 357.0 255.0 306.0 204.0 306.0 204.0 255.0 153.0 255.0 153.0 306.0 102.0 306.0 102.0 255.0 153.0 255.0 153.0 204.0 102.0 204.0 102.0 255.0 51.0 255.0 51.0 204.0 102.0 204.0 102.0 153.0 51.0 153.0 51.0 102.0 102.0 102.0 102.0 153.0 153.0 153.0 153.0 204.0 204.0 204.0 204.0 255.0 255.0 255.0 255.0 204.0 306.0 204.0 306.0 255.0 255.0 255.0 255.0 306.0 306.0 306.0 306.0 357.0 357.0 357.0 M408.0 255.0 L459.0 255.0 459.0 306.0 408.0 306.0 408.0 255.0 M357.0 255.0 L357.0 306.0 306.0 306.0 306.0 255.0 357.0 255.0 M102.0 51.0 L153.0 51.0 153.0 102.0 102.0 102.0 102.0 51.0 M51.0 357.0 L51.0 306.0 102.0 306.0 102.0 357.0 51.0 357.0 M102.0 357.0 L153.0 357.0 153.0 408.0 204.0 408.0 204.0 459.0 153.0 459.0 153.0 408.0 102.0 408.0 102.0 357.0 M204.0 561.0 L255.0 561.0 255.0 510.0 204.0 510.0 204.0 561.0 153.0 561.0 153.0 510.0 204.0 510.0 204.0 459.0 255.0 459.0 255.0 510.0 306.0 510.0 306.0 561.0 255.0 561.0 255.0 612.0 204.0 612.0 204.0 561.0" fill="#373737" fill-rule="evenodd" stroke="none"/>
  </g>
</svg>
