<?xml version="1.0" encoding="UTF-8" standalone="no"?>
<svg xmlns:ffdec="https://www.free-decompiler.com/flash" xmlns:xlink="http://www.w3.org/1999/xlink" ffdec:objectType="shape" height="14.75px" width="154.05px" xmlns="http://www.w3.org/2000/svg">
  <g transform="matrix(1.0, 0.0, 0.0, 1.0, 0.0, -0.6)">
    <path d="M148.55 4.15 L148.55 0.6 149.9 0.6 151.25 2.7 152.4 0.6 153.95 0.6 153.95 4.15 152.8 4.15 152.8 2.35 151.8 4.15 150.7 4.15 149.65 2.3 149.65 4.15 148.55 4.15 M138.6 3.1 L138.6 4.15 137.3 4.15 137.3 3.1 138.6 3.1 M141.95 5.15 L141.95 8.15 138.35 8.15 138.35 15.35 134.55 15.35 134.55 8.15 130.95 8.15 130.95 5.35 131.4 5.15 141.95 5.15 M143.05 5.35 L143.5 5.15 154.05 5.15 154.05 8.15 146.6 8.15 146.6 8.9 154.05 8.9 154.05 11.9 146.5 11.9 146.5 12.5 154.05 12.5 154.05 15.35 143.05 15.35 143.05 5.35 M125.25 8.6 L124.5 10.6 126.1 10.6 125.25 8.6 M123.2 5.15 L127.0 5.15 132.5 15.1 132.5 15.35 128.7 15.35 127.5 13.45 122.95 13.45 121.9 15.35 117.85 15.35 123.2 5.15 M144.8 2.05 L144.75 2.35 144.8 2.7 Q144.8 2.95 144.95 2.95 L146.8 2.95 146.95 2.7 147.0 2.35 146.95 2.05 146.8 1.8 144.95 1.8 Q144.8 1.8 144.8 2.05 M143.55 1.85 L143.65 1.3 Q143.7 1.0 143.9 0.8 L144.45 0.6 147.3 0.6 147.85 0.8 148.1 1.3 148.2 1.85 148.2 2.9 148.0 3.85 147.55 4.15 144.2 4.15 143.75 3.85 143.55 2.9 143.55 1.85 M140.25 2.2 L140.25 2.35 140.25 2.55 140.25 2.8 140.35 3.0 140.45 3.1 143.15 3.1 143.15 4.15 139.65 4.15 Q139.25 4.0 139.15 3.7 L139.0 2.9 139.0 1.85 Q139.1 1.15 139.3 0.85 139.5 0.6 139.95 0.6 L143.15 0.6 143.15 1.65 140.45 1.65 140.35 1.75 140.25 1.95 140.25 2.2 M106.5 15.35 L103.25 15.35 103.25 5.15 114.5 5.15 Q116.05 5.6 116.3 6.25 L116.55 7.45 116.55 8.3 116.25 10.0 115.7 11.15 114.6 12.05 117.25 15.35 113.55 15.35 111.15 12.85 106.5 12.85 106.5 15.35 M98.7 5.35 L99.15 5.15 102.15 5.15 102.15 15.35 98.7 15.35 98.7 5.35 M106.8 8.2 L106.8 9.65 112.5 9.65 Q112.9 8.75 112.5 8.2 L106.8 8.2 M87.75 8.2 L87.75 9.65 93.45 9.65 Q93.85 8.75 93.45 8.2 L87.75 8.2 M87.45 12.85 L87.45 15.35 84.2 15.35 84.2 5.15 95.45 5.15 Q97.0 5.6 97.25 6.25 L97.5 7.45 97.5 8.3 97.5 10.85 96.75 12.3 95.5 12.85 87.45 12.85 M45.15 5.35 L45.6 5.15 56.15 5.15 56.15 8.15 48.7 8.15 48.7 8.9 56.15 8.9 56.15 11.9 48.6 11.9 48.6 12.5 56.15 12.5 56.15 15.35 45.15 15.35 45.15 5.35 M39.65 5.15 L44.05 5.15 44.05 15.35 40.8 15.35 40.8 10.25 37.95 15.35 34.65 15.35 31.65 10.1 31.65 15.35 28.55 15.35 28.55 5.15 32.35 5.15 36.3 11.15 39.65 5.15 M22.85 13.45 L18.3 13.45 17.25 15.35 13.2 15.35 18.55 5.15 22.35 5.15 28.0 15.35 24.05 15.35 22.85 13.45 M19.85 10.6 L21.45 10.6 20.6 8.6 19.85 10.6 M4.2 8.2 L3.85 8.45 3.65 9.0 3.6 9.7 3.6 10.25 3.6 10.75 3.65 11.5 3.85 12.05 4.05 12.35 8.4 12.35 8.4 11.65 4.95 11.65 4.95 8.9 11.95 8.9 11.95 15.35 1.9 15.35 Q0.8 14.9 0.45 14.1 0.15 13.3 0.0 11.75 L0.0 8.7 Q0.35 6.7 0.95 5.9 1.5 5.15 2.7 5.15 L11.95 5.15 11.95 8.2 4.2 8.2" fill="#ffffff" fill-rule="evenodd" stroke="none"/>
  </g>
</svg>
