<?xml version="1.0" encoding="UTF-8" standalone="no"?>
<svg xmlns:ffdec="https://www.free-decompiler.com/flash" xmlns:xlink="http://www.w3.org/1999/xlink" ffdec:objectType="shape" height="143.7px" width="182.4px" xmlns="http://www.w3.org/2000/svg">
  <g transform="matrix(1.0, 0.0, 0.0, 1.0, 1.95, 2.0)">
    <path d="M86.65 58.6 L100.1 72.6 29.75 126.75 16.35 109.5 86.65 58.6" fill="url(#gradient0)" fill-rule="evenodd" stroke="none"/>
    <path d="M6.25 96.65 Q11.65 92.45 18.35 93.3 25.1 94.1 29.2 99.45 33.4 104.85 32.55 111.55 31.75 118.25 26.4 122.4 21.1 126.55 14.35 125.75 7.65 124.9 3.45 119.6 -0.65 114.25 0.15 107.55 1.0 100.85 6.25 96.65" fill="#ffffff" fill-rule="evenodd" stroke="none"/>
    <path d="M37.75 136.95 Q33.55 140.25 28.2 139.55 22.9 138.9 19.6 134.7 16.3 130.5 16.95 125.15 17.6 119.85 21.85 116.55 26.05 113.2 31.35 113.85 36.7 114.55 40.0 118.8 43.35 123.0 42.7 128.3 42.05 133.65 37.75 136.95" fill="#ffffff" fill-rule="evenodd" stroke="none"/>
    <path d="M40.05 118.75 Q43.4 123.05 42.7 128.35 42.05 133.65 37.8 136.95 33.6 140.25 28.3 139.6 22.95 138.95 19.65 134.75 16.65 130.85 17.05 125.85 13.1 125.95 9.65 124.35 6.0 122.75 3.55 119.6 -0.6 114.25 0.2 107.55 1.05 100.85 6.35 96.65 11.7 92.5 18.4 93.3 25.15 94.15 29.25 99.5" fill="none" stroke="#000000" stroke-linecap="round" stroke-linejoin="round" stroke-width="4.0"/>
    <path d="M148.75 12.95 L162.15 30.2 90.85 81.1 77.4 66.9 148.75 12.95" fill="url(#gradient1)" fill-rule="evenodd" stroke="none"/>
    <path d="M172.25 43.05 Q166.85 47.25 160.15 46.4 153.4 45.6 149.3 40.25 145.1 34.85 145.95 28.15 146.75 21.45 152.1 17.3 157.4 13.15 164.15 13.95 170.85 14.8 175.05 20.1 179.15 25.45 178.35 32.15 177.5 38.85 172.25 43.05" fill="#ffffff" fill-rule="evenodd" stroke="none"/>
    <path d="M140.75 2.75 Q144.95 -0.55 150.3 0.15 155.6 0.8 158.9 5.0 162.2 9.2 161.55 14.55 160.9 19.85 156.65 23.15 152.45 26.5 147.15 25.85 141.8 25.15 138.5 20.9 135.15 16.7 135.8 11.4 136.45 6.05 140.75 2.75" fill="#ffffff" fill-rule="evenodd" stroke="none"/>
    <path d="M29.45 98.9 L138.45 20.95 Q135.1 16.65 135.8 11.35 136.45 6.05 140.7 2.75 144.9 -0.55 150.2 0.1 155.55 0.75 158.85 4.95 161.85 8.85 161.45 13.85 165.4 13.75 168.85 15.35 172.5 16.95 174.95 20.1 179.1 25.45 178.3 32.15 177.45 38.85 172.15 43.05 166.8 47.2 160.1 46.4 153.35 45.55 149.25 40.2 L39.15 117.25" fill="none" stroke="#000000" stroke-linecap="round" stroke-linejoin="round" stroke-width="4.0"/>
  </g>
  <defs>
    <linearGradient gradientTransform="matrix(0.0102, -0.008, -0.008, -0.0102, 38.6, 106.0)" gradientUnits="userSpaceOnUse" id="gradient0" spreadMethod="pad" x1="-819.2" x2="819.2">
      <stop offset="0.0" stop-color="#ffffff"/>
      <stop offset="1.0" stop-color="#d8d8d8"/>
    </linearGradient>
    <linearGradient gradientTransform="matrix(-0.0102, 0.008, 0.008, 0.0102, 139.9, 33.7)" gradientUnits="userSpaceOnUse" id="gradient1" spreadMethod="pad" x1="-819.2" x2="819.2">
      <stop offset="0.0" stop-color="#ffffff"/>
      <stop offset="1.0" stop-color="#d8d8d8"/>
    </linearGradient>
  </defs>
</svg>
