<?xml version="1.0" encoding="UTF-8" standalone="no"?>
<svg xmlns:ffdec="https://www.free-decompiler.com/flash" xmlns:xlink="http://www.w3.org/1999/xlink" ffdec:objectType="shape" height="116.05px" width="108.3px" xmlns="http://www.w3.org/2000/svg">
  <g transform="matrix(1.0, 0.0, 0.0, 1.0, 2.0, 2.0)">
    <path d="M104.3 52.15 Q104.3 73.75 89.05 89.05 73.75 104.3 52.15 104.3 30.55 104.3 15.3 89.05 0.0 73.75 0.0 52.15 0.0 30.55 15.3 15.3 30.55 0.0 52.15 0.0 73.75 0.0 89.05 15.3 104.3 30.55 104.3 52.15" fill="url(#gradient0)" fill-rule="evenodd" stroke="none"/>
    <path d="M89.45 91.85 L89.45 104.3 Q89.45 108.05 86.75 110.15 84.2 112.05 80.15 112.05 76.1 112.05 73.55 110.15 70.8 108.05 70.8 104.3 L70.8 91.85 Q70.8 88.15 73.55 86.05 76.1 84.15 80.15 84.15 84.2 84.15 86.75 86.05 89.45 88.15 89.45 91.85" fill="url(#gradient1)" fill-rule="evenodd" stroke="none"/>
    <path d="M61.45 84.15 Q65.5 84.15 68.05 86.05 70.8 88.15 70.8 91.85 L70.8 104.3 Q70.8 108.05 68.05 110.15 65.55 112.05 61.45 112.05 57.4 112.05 54.85 110.15 52.15 108.05 52.15 104.3 L52.15 91.85 Q52.15 88.15 54.85 86.05 57.4 84.15 61.45 84.15" fill="url(#gradient2)" fill-rule="evenodd" stroke="none"/>
    <path d="M36.2 86.05 Q38.75 84.15 42.8 84.15 46.85 84.15 49.4 86.05 52.15 88.15 52.15 91.85 L52.15 104.3 Q52.15 108.05 49.4 110.15 46.9 112.05 42.8 112.05 38.75 112.05 36.2 110.15 33.5 108.05 33.5 104.3 L33.5 91.85 Q33.5 88.15 36.2 86.05" fill="url(#gradient3)" fill-rule="evenodd" stroke="none"/>
    <path d="M24.15 84.15 Q28.2 84.15 30.75 86.05 33.5 88.15 33.5 91.85 L33.5 104.3 Q33.5 108.05 30.75 110.15 28.25 112.05 24.15 112.05 20.1 112.05 17.55 110.15 14.8 108.05 14.8 104.3 L14.8 91.85 Q14.8 88.15 17.55 86.05 20.1 84.15 24.15 84.15" fill="url(#gradient4)" fill-rule="evenodd" stroke="none"/>
    <path d="M104.3 52.15 Q104.3 30.55 89.05 15.3 73.75 0.0 52.15 0.0 30.55 0.0 15.3 15.3 0.0 30.55 0.0 52.15 0.0 62.6 3.95 72.15 7.8 81.35 14.8 88.55 L14.8 104.3 Q14.8 108.05 17.55 110.15 20.1 112.05 24.15 112.05 28.25 112.05 30.75 110.15 33.45 108.1 33.5 104.45 33.55 108.1 36.2 110.15 38.75 112.05 42.8 112.05 46.9 112.05 49.4 110.15 52.1 108.1 52.15 104.45 52.2 108.1 54.85 110.15 57.4 112.05 61.45 112.05 65.55 112.05 68.05 110.15 70.75 108.1 70.8 104.45 70.85 108.1 73.55 110.15 76.1 112.05 80.15 112.05 84.2 112.05 86.75 110.15 89.45 108.05 89.45 104.3 L89.45 88.55 Q96.5 81.35 100.35 72.15 104.3 62.6 104.3 52.15 Z" fill="none" stroke="#000000" stroke-linecap="round" stroke-linejoin="round" stroke-width="4.0"/>
    <path d="M39.9 31.4 Q43.8 33.0 46.8 36.0 53.2 42.4 50.0 49.65 48.95 52.05 46.5 54.9 L41.65 60.05 40.65 61.0 Q35.95 65.75 33.45 67.5 29.4 70.4 25.6 70.4 20.85 70.4 16.65 66.2 10.45 59.95 10.45 51.1 10.45 42.25 16.65 36.0 19.7 33.0 23.6 31.4 27.5 29.8 31.75 29.8 36.05 29.8 39.9 31.4" fill="url(#gradient5)" fill-rule="evenodd" stroke="none"/>
    <path d="M44.0 38.85 Q48.55 43.4 46.25 48.3 44.9 51.15 38.35 57.7 31.7 64.3 28.9 65.6 24.0 67.9 19.5 63.35 14.4 58.3 14.4 51.1 14.4 43.9 19.5 38.85 24.55 33.8 31.75 33.8 38.9 33.8 44.0 38.85" fill="#000000" fill-rule="evenodd" stroke="none"/>
    <path d="M87.65 66.2 Q83.45 70.4 78.7 70.4 74.9 70.4 70.85 67.5 68.4 65.8 63.6 61.0 L62.65 60.05 Q57.9 55.3 56.15 52.8 53.25 48.75 53.25 44.95 53.25 40.2 57.5 36.0 60.5 33.0 64.4 31.4 68.25 29.8 72.55 29.8 76.8 29.8 80.7 31.4 84.6 33.0 87.65 36.0 93.9 42.25 93.9 51.1 93.9 59.95 87.65 66.2" fill="url(#gradient6)" fill-rule="evenodd" stroke="none"/>
    <path d="M60.3 38.85 Q65.35 33.8 72.55 33.8 79.75 33.8 84.8 38.85 89.9 43.9 89.9 51.1 89.9 58.3 84.8 63.35 80.3 67.9 75.4 65.6 72.6 64.3 65.95 57.7 59.4 51.15 58.05 48.3 55.8 43.4 60.3 38.85" fill="#000000" fill-rule="evenodd" stroke="none"/>
  </g>
  <defs>
    <radialGradient cx="0" cy="0" gradientTransform="matrix(0.095, 0.0, 0.0, -0.095, 29.8, 29.85)" gradientUnits="userSpaceOnUse" id="gradient0" r="819.2" spreadMethod="pad">
      <stop offset="0.0" stop-color="#ffffff"/>
      <stop offset="1.0" stop-color="#d8d8d8"/>
    </radialGradient>
    <linearGradient gradientTransform="matrix(0.0114, 0.0, 0.0, -0.0114, 80.15, 98.1)" gradientUnits="userSpaceOnUse" id="gradient1" spreadMethod="pad" x1="-819.2" x2="819.2">
      <stop offset="0.0" stop-color="#ffffff"/>
      <stop offset="1.0" stop-color="#d8d8d8"/>
    </linearGradient>
    <linearGradient gradientTransform="matrix(0.0114, 0.0, 0.0, -0.0114, 61.45, 98.1)" gradientUnits="userSpaceOnUse" id="gradient2" spreadMethod="pad" x1="-819.2" x2="819.2">
      <stop offset="0.0" stop-color="#ffffff"/>
      <stop offset="1.0" stop-color="#d8d8d8"/>
    </linearGradient>
    <linearGradient gradientTransform="matrix(0.0114, 0.0, 0.0, -0.0114, 42.8, 98.1)" gradientUnits="userSpaceOnUse" id="gradient3" spreadMethod="pad" x1="-819.2" x2="819.2">
      <stop offset="0.0" stop-color="#ffffff"/>
      <stop offset="1.0" stop-color="#d8d8d8"/>
    </linearGradient>
    <linearGradient gradientTransform="matrix(0.0114, 0.0, 0.0, -0.0114, 24.15, 98.1)" gradientUnits="userSpaceOnUse" id="gradient4" spreadMethod="pad" x1="-819.2" x2="819.2">
      <stop offset="0.0" stop-color="#ffffff"/>
      <stop offset="1.0" stop-color="#d8d8d8"/>
    </linearGradient>
    <linearGradient gradientTransform="matrix(0.0, -0.0248, -0.0248, 0.0, 30.7, 50.1)" gradientUnits="userSpaceOnUse" id="gradient5" spreadMethod="pad" x1="-819.2" x2="819.2">
      <stop offset="0.0" stop-color="#ffffff"/>
      <stop offset="1.0" stop-color="#d8d8d8"/>
    </linearGradient>
    <linearGradient gradientTransform="matrix(0.0, -0.0248, -0.0248, 0.0, 73.55, 50.1)" gradientUnits="userSpaceOnUse" id="gradient6" spreadMethod="pad" x1="-819.2" x2="819.2">
      <stop offset="0.0" stop-color="#ffffff"/>
      <stop offset="1.0" stop-color="#d8d8d8"/>
    </linearGradient>
  </defs>
</svg>
