<?xml version="1.0" encoding="UTF-8" standalone="no"?>
<svg xmlns:ffdec="https://www.free-decompiler.com/flash" xmlns:xlink="http://www.w3.org/1999/xlink" ffdec:objectType="shape" height="24.5px" width="51.0px" xmlns="http://www.w3.org/2000/svg">
  <g transform="matrix(1.0, 0.0, 0.0, 1.0, 0.5, 0.5)">
    <path d="M11.0 5.35 L15.9 0.0 21.4 1.25 35.4 1.5 35.9 7.5 40.0 9.35 45.75 7.25 50.0 7.5 44.0 13.1 45.15 17.0 41.9 18.25 35.75 18.35 32.0 23.5 28.25 23.0 22.65 17.35 13.65 16.1 11.65 17.5 9.65 14.0 0.0 13.75 0.25 6.25 11.0 5.35" fill="#00cc66" fill-rule="evenodd" stroke="none"/>
    <path d="M11.0 5.35 L15.9 0.0 21.4 1.25 35.4 1.5 35.9 7.5 40.0 9.35 45.75 7.25 50.0 7.5 44.0 13.1 45.15 17.0 41.9 18.25 35.75 18.35 32.0 23.5 28.25 23.0 22.65 17.35 13.65 16.1 11.65 17.5 9.65 14.0 0.0 13.75 0.25 6.25 11.0 5.35 Z" fill="none" stroke="#000000" stroke-linecap="round" stroke-linejoin="round" stroke-width="1.0"/>
  </g>
</svg>
