<?xml version="1.0" encoding="UTF-8" standalone="no"?>
<svg xmlns:ffdec="https://www.free-decompiler.com/flash" xmlns:xlink="http://www.w3.org/1999/xlink" ffdec:objectType="shape" height="40.0px" width="38.05px" xmlns="http://www.w3.org/2000/svg">
  <g transform="matrix(1.0, 0.0, 0.0, 1.0, 0.0, 0.0)">
    <path d="M38.05 38.0 L38.05 40.0 1.0 40.0 Q0.55 40.0 0.3 39.7 0.0 39.4 0.0 39.0 L0.0 1.05 Q0.0 0.6 0.3 0.3 0.55 0.0 1.0 0.0 L38.05 0.0 38.05 2.0 3.0 2.0 Q2.55 2.0 2.3 2.3 2.0 2.6 2.0 3.0 L2.0 37.0 Q2.0 37.4 2.3 37.7 2.55 38.0 3.0 38.0 L38.05 38.0 M35.0 24.0 L35.0 5.0 5.0 5.0 5.0 35.0 35.0 35.0 35.0 24.95 35.0 24.0 M37.0 3.0 L37.0 37.0 3.0 37.0 3.0 3.0 37.0 3.0" fill="#000000" fill-rule="evenodd" stroke="none"/>
    <path d="M35.0 24.0 L35.0 24.95 35.0 35.0 5.0 35.0 5.0 5.0 35.0 5.0 35.0 24.0 M33.0 24.0 L33.0 7.0 7.0 7.0 7.0 33.0 33.0 33.0 33.0 24.95 33.0 24.0" fill="#25272d" fill-rule="evenodd" stroke="none"/>
    <path d="M33.0 24.0 L33.0 24.95 33.0 33.0 7.0 33.0 7.0 7.0 33.0 7.0 33.0 24.0" fill="#101113" fill-rule="evenodd" stroke="none"/>
    <path d="M38.05 38.0 L3.0 38.0 Q2.55 38.0 2.3 37.7 2.0 37.4 2.0 37.0 L2.0 3.0 Q2.0 2.6 2.3 2.3 2.55 2.0 3.0 2.0 L38.05 2.0 38.05 38.0 M37.0 3.0 L3.0 3.0 3.0 37.0 37.0 37.0 37.0 3.0" fill="#4a4f5a" fill-rule="evenodd" stroke="none"/>
  </g>
</svg>
