<?xml version="1.0" encoding="UTF-8" standalone="no"?>
<svg xmlns:ffdec="https://www.free-decompiler.com/flash" xmlns:xlink="http://www.w3.org/1999/xlink" ffdec:objectType="shape" height="40.0px" width="266.0px" xmlns="http://www.w3.org/2000/svg">
  <g transform="matrix(1.0, 0.0, 0.0, 1.0, 0.0, 0.0)">
    <path d="M266.0 3.0 L266.0 5.0 251.1 5.0 251.1 4.95 226.95 4.95 197.3 4.95 197.3 5.0 91.8 5.0 91.8 4.95 75.9 4.95 75.9 5.0 0.0 5.0 0.0 3.0 266.0 3.0 M266.0 35.0 L266.0 37.0 0.0 37.0 0.0 35.0 195.05 35.0 195.25 35.0 197.05 35.0 197.35 35.0 199.35 35.0 215.2 35.0 217.2 35.0 217.45 35.0 219.5 35.0 266.0 35.0 M266.0 38.0 L266.0 40.0 0.0 40.0 0.0 38.0 266.0 38.0 M0.0 2.0 L0.0 0.0 266.0 0.0 266.0 2.0 0.0 2.0" fill="#000000" fill-rule="evenodd" stroke="none"/>
    <path d="M266.0 37.0 L266.0 38.0 0.0 38.0 0.0 37.0 266.0 37.0 M0.0 3.0 L0.0 2.0 266.0 2.0 266.0 3.0 0.0 3.0" fill="#4a4f5a" fill-rule="evenodd" stroke="none"/>
    <path d="M266.0 5.0 L266.0 35.0 219.5 35.0 217.45 35.0 217.2 35.0 215.2 35.0 199.35 35.0 197.35 35.0 197.05 35.0 195.25 35.0 195.05 35.0 0.0 35.0 0.0 5.0 75.9 5.0 75.9 4.95 91.8 4.95 91.8 5.0 197.3 5.0 197.3 4.95 226.95 4.95 251.1 4.95 251.1 5.0 266.0 5.0" fill="#25272d" fill-rule="evenodd" stroke="none"/>
  </g>
</svg>
