<?xml version="1.0" encoding="UTF-8" standalone="no"?>
<svg xmlns:ffdec="https://www.free-decompiler.com/flash" xmlns:xlink="http://www.w3.org/1999/xlink" ffdec:objectType="shape" height="40.0px" width="8.0px" xmlns="http://www.w3.org/2000/svg">
  <g transform="matrix(1.0, 0.0, 0.0, 1.0, 0.0, 0.0)">
    <path d="M0.0 2.0 L0.0 0.0 7.0 0.0 Q7.4 0.0 7.7 0.3 L8.0 1.05 8.0 39.0 7.7 39.7 7.0 40.0 0.0 40.0 0.0 38.0 5.0 38.0 5.7 37.7 6.0 37.0 6.0 3.0 5.7 2.3 Q5.4 2.0 5.0 2.0 L0.0 2.0 M0.0 37.0 L0.0 35.0 3.0 35.0 3.0 5.0 0.0 5.0 0.0 3.0 5.0 3.0 5.0 37.0 0.0 37.0" fill="#000000" fill-rule="evenodd" stroke="none"/>
    <path d="M0.0 2.0 L5.0 2.0 Q5.4 2.0 5.7 2.3 L6.0 3.0 6.0 37.0 5.7 37.7 5.0 38.0 0.0 38.0 0.0 37.0 5.0 37.0 5.0 3.0 0.0 3.0 0.0 2.0" fill="#4a4f5a" fill-rule="evenodd" stroke="none"/>
    <path d="M0.0 35.0 L0.0 5.0 3.0 5.0 3.0 35.0 0.0 35.0" fill="#25272d" fill-rule="evenodd" stroke="none"/>
  </g>
</svg>
