<?xml version="1.0" encoding="UTF-8" standalone="no"?>
<svg xmlns:ffdec="https://www.free-decompiler.com/flash" xmlns:xlink="http://www.w3.org/1999/xlink" ffdec:objectType="shape" height="40.0px" width="16.0px" xmlns="http://www.w3.org/2000/svg">
  <g transform="matrix(1.0, 0.0, 0.0, 1.0, 0.0, 0.0)">
    <path d="M16.0 37.0 L16.0 38.0 0.0 38.0 0.0 2.0 16.0 2.0 16.0 3.0 1.0 3.0 1.0 19.95 1.0 37.0 16.0 37.0" fill="#4a4f5a" fill-rule="evenodd" stroke="none"/>
    <path d="M16.0 3.0 L16.0 5.0 3.0 5.0 3.0 19.95 3.0 35.0 16.0 35.0 16.0 37.0 1.0 37.0 1.0 19.95 1.0 3.0 16.0 3.0 M16.0 38.0 L16.0 40.0 0.0 40.0 0.0 38.0 16.0 38.0 M0.0 2.0 L0.0 0.0 16.0 0.0 16.0 2.0 0.0 2.0" fill="#000000" fill-rule="evenodd" stroke="none"/>
    <path d="M16.0 5.0 L16.0 35.0 3.0 35.0 3.0 19.95 3.0 5.0 16.0 5.0" fill="#25272d" fill-rule="evenodd" stroke="none"/>
  </g>
</svg>
