<?xml version="1.0" encoding="UTF-8" standalone="no"?>
<svg xmlns:ffdec="https://www.free-decompiler.com/flash" xmlns:xlink="http://www.w3.org/1999/xlink" ffdec:objectType="shape" height="18.65px" width="18.65px" xmlns="http://www.w3.org/2000/svg">
  <g transform="matrix(1.0, 0.0, 0.0, 1.0, 9.3, 9.3)">
    <path d="M1.1 -2.9 L1.75 -4.45 Q2.65 -4.15 3.4 -3.4 L2.2 -2.2 1.1 -2.9" fill="#ffffff" fill-opacity="0.5764706" fill-rule="evenodd" stroke="none"/>
    <path d="M2.2 -2.2 L3.4 -3.4 Q4.15 -2.65 4.5 -1.7 L2.9 -1.1 2.2 -2.2" fill="#ffffff" fill-opacity="0.6509804" fill-rule="evenodd" stroke="none"/>
    <path d="M2.9 -1.1 L4.5 -1.7 4.8 0.1 4.8 0.2 3.1 0.2 3.15 0.05 2.9 -1.1" fill="#ffffff" fill-opacity="0.7176471" fill-rule="evenodd" stroke="none"/>
    <path d="M1.75 -4.45 L1.1 -2.9 -0.05 -3.15 -0.2 -3.1 -0.2 -4.8 -0.1 -4.8 1.75 -4.45" fill="#ffffff" fill-opacity="0.50980395" fill-rule="evenodd" stroke="none"/>
    <path d="M-0.2 -4.8 L-0.2 -3.1 -1.4 -2.8 -2.05 -4.35 -0.2 -4.8" fill="#ffffff" fill-opacity="0.44313726" fill-rule="evenodd" stroke="none"/>
    <path d="M-2.05 -4.35 L-1.4 -2.8 -2.25 -2.15 -2.35 -2.05 -3.55 -3.25 -3.45 -3.35 Q-2.85 -4.05 -2.05 -4.35" fill="#ffffff" fill-opacity="0.36862746" fill-rule="evenodd" stroke="none"/>
    <path d="M-4.65 -1.65 L-3.05 -1.05 -3.25 0.05 -3.2 0.2 -4.95 0.25 -4.95 0.05 -4.65 -1.65" fill="#ffffff" fill-opacity="0.23137255" fill-rule="evenodd" stroke="none"/>
    <path d="M-3.55 -3.25 L-2.35 -2.05 -3.05 -1.05 -4.65 -1.65 -3.55 -3.25" fill="#ffffff" fill-opacity="0.29803923" fill-rule="evenodd" stroke="none"/>
    <path d="M-2.35 2.35 L-1.4 3.0 -2.0 4.6 -3.55 3.55 -2.35 2.35" fill="#ffffff" fill-opacity="0.023529412" fill-rule="evenodd" stroke="none"/>
    <path d="M-4.95 0.25 L-3.2 0.2 -2.95 1.35 -4.55 2.05 -4.95 0.25" fill="#ffffff" fill-opacity="0.15686275" fill-rule="evenodd" stroke="none"/>
    <path d="M-2.35 2.35 L-3.55 3.55 -4.55 2.05 -2.95 1.35 -2.35 2.35" fill="#ffffff" fill-opacity="0.08627451" fill-rule="evenodd" stroke="none"/>
    <path d="M1.7 4.7 L-0.05 4.95 -0.25 4.95 -0.25 3.25 -0.05 3.25 1.05 3.05 1.7 4.7" fill="#ffffff" fill-rule="evenodd" stroke="none"/>
    <path d="M3.1 0.2 L4.8 0.2 4.35 2.05 2.85 1.45 3.1 0.2" fill="#ffffff" fill-opacity="0.7921569" fill-rule="evenodd" stroke="none"/>
    <path d="M2.85 1.45 L4.35 2.05 3.4 3.5 3.3 3.6 2.1 2.4 2.2 2.3 2.85 1.45" fill="#ffffff" fill-opacity="0.8627451" fill-rule="evenodd" stroke="none"/>
    <path d="M3.3 3.6 Q2.55 4.35 1.7 4.7 L1.05 3.05 Q1.6 2.9 2.1 2.4 L3.3 3.6" fill="#ffffff" fill-opacity="0.92941177" fill-rule="evenodd" stroke="none"/>
    <path d="M3.55 -8.55 L2.7 -6.45 Q1.35 -7.1 -0.05 -7.05 L-0.05 -9.3 Q1.7 -9.35 3.55 -8.55" fill="#6b4e23" fill-opacity="0.023529412" fill-rule="evenodd" stroke="none"/>
    <path d="M2.7 -6.45 L3.55 -8.55 Q5.35 -7.8 6.7 -6.5 L5.1 -4.9 Q4.1 -5.95 2.7 -6.45" fill="#6b4e23" fill-opacity="0.08627451" fill-rule="evenodd" stroke="none"/>
    <path d="M5.1 -4.9 L6.7 -6.5 8.55 -3.55 8.65 -3.35 6.6 -2.55 6.55 -2.7 Q6.0 -4.0 5.1 -4.9" fill="#6b4e23" fill-opacity="0.15686275" fill-rule="evenodd" stroke="none"/>
    <path d="M6.6 -2.55 L8.65 -3.35 Q9.35 -1.6 9.35 0.2 L7.05 0.2 Q7.1 -1.2 6.6 -2.55" fill="#6b4e23" fill-opacity="0.23137255" fill-rule="evenodd" stroke="none"/>
    <path d="M-0.05 -9.3 L-0.05 -7.05 -2.7 -6.55 -2.9 -6.5 -3.7 -8.5 -3.6 -8.6 Q-1.85 -9.25 -0.05 -9.3" fill="#ee9003" fill-rule="evenodd" stroke="none"/>
    <path d="M-6.7 -6.4 Q-5.45 -7.75 -3.7 -8.5 L-2.9 -6.5 Q-4.2 -5.85 -5.15 -4.85 L-6.7 -6.4" fill="#ee9003" fill-opacity="0.92941177" fill-rule="evenodd" stroke="none"/>
    <path d="M-8.7 -3.35 L-8.6 -3.5 Q-7.9 -5.2 -6.7 -6.4 L-5.15 -4.85 Q-6.0 -4.0 -6.5 -2.65 L-6.6 -2.5 -8.7 -3.35" fill="#ee9003" fill-opacity="0.84313726" fill-rule="evenodd" stroke="none"/>
    <path d="M-9.3 0.15 Q-9.35 -1.55 -8.7 -3.35 L-6.6 -2.5 Q-7.15 -1.15 -7.1 0.15 L-9.3 0.15" fill="#ee9003" fill-opacity="0.8627451" fill-rule="evenodd" stroke="none"/>
    <path d="M-6.5 6.7 Q-7.75 5.5 -8.5 3.75 L-6.45 2.85 Q-5.9 4.2 -5.0 5.1 L-6.5 6.7" fill="#ee9003" fill-opacity="0.7176471" fill-rule="evenodd" stroke="none"/>
    <path d="M-8.5 3.75 L-8.6 3.55 Q-9.3 1.85 -9.3 0.15 L-7.1 0.15 Q-7.1 1.45 -6.5 2.7 L-6.45 2.85 -8.5 3.75" fill="#ee9003" fill-opacity="0.7921569" fill-rule="evenodd" stroke="none"/>
    <path d="M-0.1 9.35 Q-1.85 9.35 -3.55 8.65 L-2.75 6.6 -0.15 7.15 -0.1 9.35" fill="#ee9003" fill-opacity="0.5764706" fill-rule="evenodd" stroke="none"/>
    <path d="M-3.55 8.65 Q-5.3 7.9 -6.5 6.7 L-5.0 5.1 -2.75 6.6 -3.55 8.65" fill="#ee9003" fill-opacity="0.6509804" fill-rule="evenodd" stroke="none"/>
    <path d="M3.4 8.7 Q1.7 9.4 -0.1 9.35 L-0.15 7.15 Q1.2 7.15 2.55 6.6 L3.4 8.7" fill="#ee9003" fill-opacity="0.50980395" fill-rule="evenodd" stroke="none"/>
    <path d="M7.05 0.2 L9.35 0.2 Q9.3 1.9 8.6 3.6 L8.5 3.75 6.45 2.9 6.55 2.75 Q7.05 1.5 7.05 0.2" fill="#ee9003" fill-opacity="0.29803923" fill-rule="evenodd" stroke="none"/>
    <path d="M8.5 3.75 Q7.75 5.55 6.5 6.7 L4.9 5.1 Q5.9 4.25 6.45 2.9 L8.5 3.75" fill="#ee9003" fill-opacity="0.36862746" fill-rule="evenodd" stroke="none"/>
    <path d="M6.5 6.7 L3.55 8.6 3.4 8.7 2.55 6.6 2.75 6.55 4.9 5.1 6.5 6.7" fill="#ee9003" fill-opacity="0.44313726" fill-rule="evenodd" stroke="none"/>
  </g>
</svg>
