<?xml version="1.0" encoding="UTF-8" standalone="no"?>
<svg xmlns:ffdec="https://www.free-decompiler.com/flash" xmlns:xlink="http://www.w3.org/1999/xlink" ffdec:objectType="shape" height="64.0px" width="240.0px" xmlns="http://www.w3.org/2000/svg">
  <g transform="matrix(1.0, 0.0, 0.0, 1.0, 120.0, 32.0)">
    <path d="M33.0 -27.0 L52.0 -27.0 73.0 -27.0 115.0 -27.0 115.0 -8.0 78.55 -8.0 78.0 -8.0 77.5 -8.0 77.0 -8.0 75.25 -8.0 75.0 -8.0 38.55 -8.0 37.5 -8.0 37.0 -8.0 35.25 -8.0 33.5 -8.0 -56.0 -8.0 -56.0 -27.0 33.0 -27.0 M113.0 -25.0 L-54.0 -25.0 -54.0 -10.0 113.0 -10.0 113.0 -25.0 M115.0 -3.0 L115.0 27.0 -56.0 27.0 -56.0 -3.0 115.0 -3.0 M-115.0 -27.0 L-61.0 -27.0 -61.0 -3.0 -61.0 4.0 -61.0 5.9 -61.0 27.0 -115.0 27.0 -115.0 -3.0 -115.0 -27.0" fill="#25272d" fill-rule="evenodd" stroke="none"/>
    <path d="M33.0 -27.0 L-56.0 -27.0 -56.0 -8.0 33.5 -8.0 35.25 -8.0 37.0 -8.0 37.5 -8.0 38.55 -8.0 75.0 -8.0 75.25 -8.0 77.0 -8.0 77.5 -8.0 78.0 -8.0 78.55 -8.0 115.0 -8.0 115.0 -27.0 73.0 -27.0 52.0 -27.0 33.0 -27.0 M120.0 -30.95 L120.0 31.0 119.7 31.7 119.0 32.0 -119.0 32.0 Q-119.45 32.0 -119.7 31.7 L-120.0 31.0 -120.0 -30.95 -119.7 -31.7 Q-119.45 -32.0 -119.0 -32.0 L119.0 -32.0 119.7 -31.7 120.0 -30.95 M116.9 -6.0 L-58.0 -6.0 -58.0 -28.95 117.0 -29.0 117.0 29.0 -58.0 29.0 -58.0 -5.0 116.9 -5.0 116.9 -6.0 M115.0 -3.0 L-56.0 -3.0 -56.0 27.0 115.0 27.0 115.0 -3.0 M117.85 -29.85 L-117.85 -29.85 -117.85 29.95 117.85 29.95 117.85 -29.85 M-115.0 -27.0 L-115.0 -3.0 -115.0 27.0 -61.0 27.0 -61.0 5.9 -61.0 4.0 -61.0 -3.0 -61.0 -27.0 -115.0 -27.0 M-59.0 -29.0 L-59.0 29.0 -117.05 29.0 -117.05 -29.0 -59.0 -29.0" fill="#000000" fill-rule="evenodd" stroke="none"/>
    <path d="M113.0 -25.0 L113.0 -10.0 -54.0 -10.0 -54.0 -25.0 113.0 -25.0" fill="#101113" fill-rule="evenodd" stroke="none"/>
    <path d="M70.95 -28.95 L70.95 -29.0 -15.75 -29.0 -15.75 -28.95 -58.0 -28.95 -58.0 -6.0 116.9 -6.0 116.9 -5.0 -58.0 -5.0 -58.0 29.0 117.0 29.0 117.0 -29.0 70.95 -28.95 M118.0 29.9 L118.0 30.0 -118.0 30.0 -118.0 -30.0 118.05 -30.0 118.05 29.9 118.0 29.9 M-59.0 -29.0 L-117.0 -29.0 -117.0 29.0 -59.0 29.0 -59.0 -29.0" fill="#4a4f5a" fill-rule="evenodd" stroke="none"/>
  </g>
</svg>
