<?xml version="1.0" encoding="UTF-8" standalone="no"?>
<svg xmlns:ffdec="https://www.free-decompiler.com/flash" xmlns:xlink="http://www.w3.org/1999/xlink" ffdec:objectType="shape" height="117.5px" width="163.0px" xmlns="http://www.w3.org/2000/svg">
  <g transform="matrix(1.0, 0.0, 0.0, 1.0, 0.5, 0.5)">
    <path d="M148.5 23.0 Q148.5 23.5 148.95 23.35 L149.5 23.0 M139.5 36.0 L140.0 36.5 M117.5 7.0 Q118.55 7.8 118.85 7.15 118.5 6.0 118.0 6.0 M88.5 1.25 L87.0 1.5 Q87.45 2.45 85.3 1.7 85.95 0.85 86.45 0.95 L86.5 0.0 Q86.75 0.25 87.0 1.5 L86.45 0.95 M87.5 34.5 Q88.5 34.25 88.5 34.0 L87.6 34.05 87.5 34.5 Q86.35 34.2 87.6 34.05 87.85 33.0 88.5 34.0 L88.5 35.0 Q88.55 35.8 87.5 35.45 87.05 35.4 87.1 35.15 86.45 34.6 87.5 34.5 88.3 35.55 87.5 35.45 M87.5 34.5 L87.1 35.15 M100.45 45.5 Q100.95 45.95 101.6 44.65 100.3 46.0 100.0 44.5 100.05 45.45 100.45 45.5 M107.65 28.7 L107.9 28.8 Q108.5 28.85 108.5 28.0 L108.35 28.0 107.65 28.7 Q106.25 27.95 108.35 28.0 M108.5 28.0 Q110.05 29.3 107.9 28.8 M107.65 28.7 Q107.5 30.45 107.0 29.5 107.0 29.0 107.65 28.7 M115.5 43.0 Q113.95 42.7 114.35 43.25 114.5 43.5 115.0 43.5 116.65 43.5 115.5 43.0 M101.6 44.65 Q101.0 44.0 100.0 44.5 M121.0 63.5 L121.0 63.0 M117.15 56.75 Q116.5 56.55 117.0 58.6 L117.65 57.8 117.5 57.0 117.15 56.75 Q115.9 56.05 115.7 57.55 115.55 58.8 117.0 58.6 M87.55 52.15 L87.5 53.0 88.5 53.25 Q88.85 52.55 88.35 52.3 L87.55 52.15 Q86.3 52.5 87.5 53.0 M99.2 98.85 L99.25 98.9 99.75 98.55 99.5 98.5 99.2 98.85 98.6 99.6 99.25 98.9 100.6 99.0 Q100.4 98.7 99.75 98.55 100.45 98.25 101.0 99.0 100.65 97.3 99.5 98.5 99.05 97.25 101.0 97.5 L101.0 99.0 Q101.2 99.75 100.45 99.85 L100.2 100.15 Q99.25 101.2 98.6 99.6 L100.45 99.85 Q100.8 99.35 100.6 99.0 L101.0 99.0 M160.8 50.7 L162.0 50.65 Q161.6 50.6 161.0 51.0 L160.8 50.7 M136.0 64.0 Q137.1 61.7 137.5 63.5 137.05 64.1 136.3 64.05 L136.0 64.0 Q136.75 62.75 137.5 63.5 M148.95 84.0 L149.0 83.65 Q149.25 83.7 149.5 84.5 148.95 84.55 148.95 84.0 M66.25 36.2 Q65.35 36.75 65.0 36.0 L66.0 35.0 Q66.25 35.0 66.5 36.0 67.3 37.55 66.6 37.25 65.45 36.8 66.25 36.2 L66.5 36.0 M34.8 44.05 L33.65 43.7 Q33.3 43.7 33.0 44.0 33.0 45.25 33.5 45.6 34.35 45.35 34.8 44.05 35.25 45.75 33.5 45.6 31.85 45.5 33.0 44.0 L31.95 44.85 Q31.7 44.1 33.0 44.0 32.6 43.4 33.65 43.7 M14.95 78.25 L14.2 78.4 14.15 78.2 Q13.95 77.4 14.5 77.5 15.7 77.95 14.95 78.25 15.15 78.0 14.5 77.5 14.15 77.85 14.15 78.2 M0.0 98.0 Q1.35 98.5 0.55 98.65 L0.0 98.0 M28.5 93.4 L30.0 93.0 Q29.05 92.75 28.4 93.4 L28.5 93.4 Q28.85 93.35 29.45 93.85 L30.0 93.0 M28.4 93.4 Q28.05 94.45 29.45 93.85 M67.5 64.5 Q68.35 64.35 67.65 63.2 L67.5 64.5 Q67.0 63.5 67.65 63.2 M54.5 57.5 Q54.1 57.85 54.05 56.65 54.5 56.5 54.5 57.5 L55.25 57.25 Q55.25 56.5 55.0 56.5 M41.5 64.5 L41.4 65.0 Q42.2 65.05 41.55 65.35 42.3 65.55 41.5 64.5 41.0 64.75 41.0 65.0 L41.4 65.0 Q41.35 65.3 41.55 65.35 40.1 65.0 41.0 65.0 M42.4 80.95 Q42.8 80.15 43.2 80.75 L43.5 81.5 Q42.5 81.3 43.2 80.75 M67.5 115.0 L67.0 116.0 Q67.35 116.6 65.5 116.5 L67.0 116.0 M45.0 108.0 L44.5 107.5 M26.5 110.0 L25.55 110.15 25.75 110.75 24.6 110.65 Q25.0 110.3 25.55 110.15 M125.0 111.5 L125.5 111.5 M108.5 106.5 L108.7 107.4 M141.0 98.95 L141.5 99.0" fill="none" stroke="#ffffff" stroke-linecap="round" stroke-linejoin="round" stroke-width="1.0"/>
  </g>
</svg>
