<?xml version="1.0" encoding="UTF-8" standalone="no"?>
<svg xmlns:ffdec="https://www.free-decompiler.com/flash" xmlns:xlink="http://www.w3.org/1999/xlink" ffdec:objectType="shape" height="136.0px" width="366.0px" xmlns="http://www.w3.org/2000/svg">
  <g transform="matrix(1.0, 0.0, 0.0, 1.0, 0.0, 0.0)">
    <path d="M362.7 3.45 L362.65 3.4 Q360.3 1.0 357.0 1.0 L8.95 1.0 Q5.65 1.0 3.3 3.4 L3.25 3.45 Q1.0 5.75 1.0 9.0 L1.0 127.05 Q1.0 130.25 3.25 132.6 L3.3 132.65 Q5.65 135.0 8.95 135.0 L357.0 135.0 Q360.3 135.0 362.65 132.65 L362.7 132.6 Q364.95 130.25 365.0 127.05 L365.0 9.0 Q364.95 5.75 362.7 3.45 M363.45 2.75 Q365.95 5.35 366.0 9.0 L366.0 127.05 Q365.95 130.7 363.4 133.35 L363.45 133.25 Q360.8 136.0 357.0 136.0 L8.95 136.0 Q5.15 136.0 2.55 133.25 L2.6 133.35 Q0.0 130.7 0.0 127.05 L0.0 9.0 Q0.0 5.35 2.55 2.75 L2.6 2.7 Q5.2 0.0 8.95 0.0 L357.0 0.0 Q360.75 0.0 363.4 2.7 L363.45 2.75" fill="#000000" fill-opacity="0.08235294" fill-rule="evenodd" stroke="none"/>
    <path d="M362.7 3.45 Q364.95 5.75 365.0 9.0 L365.0 127.05 Q364.95 130.25 362.7 132.6 L362.65 132.65 Q360.3 135.0 357.0 135.0 L8.95 135.0 Q5.65 135.0 3.3 132.65 L3.25 132.6 Q1.0 130.25 1.0 127.05 L1.0 9.0 Q1.0 5.75 3.25 3.45 L3.3 3.4 Q5.65 1.0 8.95 1.0 L357.0 1.0 Q360.3 1.0 362.65 3.4 L362.7 3.45 M362.0 4.15 L361.95 4.1 Q359.9 2.0 357.0 2.0 L8.95 2.0 Q6.05 2.0 4.0 4.15 L4.0 4.1 Q2.0 6.1 2.0 9.0 L2.0 127.05 Q2.0 129.9 4.0 131.95 L4.0 131.9 Q6.05 134.0 8.95 134.0 L357.0 134.0 Q359.9 134.0 361.95 131.95 L362.0 131.9 Q363.95 129.85 364.0 127.05 L364.0 9.0 Q363.95 6.15 362.0 4.15" fill="#000000" fill-opacity="0.16078432" fill-rule="evenodd" stroke="none"/>
    <path d="M362.0 4.15 Q363.95 6.15 364.0 9.0 L364.0 127.05 Q363.95 129.85 362.0 131.9 L361.95 131.95 Q359.9 134.0 357.0 134.0 L8.95 134.0 Q6.05 134.0 4.0 131.9 L4.0 131.95 Q2.0 129.9 2.0 127.05 L2.0 9.0 Q2.0 6.1 4.0 4.1 L4.0 4.15 Q6.05 2.0 8.95 2.0 L357.0 2.0 Q359.9 2.0 361.95 4.1 L362.0 4.15 M361.3 4.85 L361.25 4.8 Q359.5 3.0 357.0 3.0 L8.95 3.0 Q6.45 3.0 4.75 4.8 L4.7 4.85 Q3.0 6.55 3.0 9.0 L3.0 127.0 Q3.0 129.45 4.7 131.2 L4.75 131.25 Q6.45 133.0 8.95 133.0 L357.0 133.0 Q359.5 133.0 361.25 131.25 L361.3 131.2 Q362.95 129.45 363.0 127.0 L363.0 9.0 Q362.95 6.55 361.3 4.85" fill="#000000" fill-opacity="0.2509804" fill-rule="evenodd" stroke="none"/>
    <path d="M360.55 5.55 L360.55 5.5 Q359.05 4.0 357.0 4.0 L8.95 4.0 Q6.9 4.0 5.45 5.5 L5.4 5.55 Q4.0 6.95 4.0 9.0 L4.0 127.0 Q4.0 129.05 5.4 130.5 L5.45 130.5 Q6.9 132.0 8.95 132.0 L357.0 132.0 Q359.05 132.0 360.55 130.5 361.95 129.05 362.0 127.0 L362.0 9.0 Q361.95 6.95 360.55 5.55 M361.3 4.85 Q362.95 6.55 363.0 9.0 L363.0 127.0 Q362.95 129.45 361.3 131.2 L361.25 131.25 Q359.5 133.0 357.0 133.0 L8.95 133.0 Q6.45 133.0 4.75 131.25 L4.7 131.2 Q3.0 129.45 3.0 127.0 L3.0 9.0 Q3.0 6.55 4.7 4.85 L4.75 4.8 Q6.45 3.0 8.95 3.0 L357.0 3.0 Q359.5 3.0 361.25 4.8 L361.3 4.85" fill="#000000" fill-opacity="0.32941177" fill-rule="evenodd" stroke="none"/>
    <path d="M360.55 5.55 Q361.95 6.95 362.0 9.0 L362.0 127.0 Q361.95 129.05 360.55 130.5 359.05 132.0 357.0 132.0 L8.95 132.0 Q6.9 132.0 5.45 130.5 L5.4 130.5 Q4.0 129.05 4.0 127.0 L4.0 9.0 Q4.0 6.95 5.4 5.55 L5.45 5.5 Q6.9 4.0 8.95 4.0 L357.0 4.0 Q359.05 4.0 360.55 5.5 L360.55 5.55 M361.0 9.0 Q360.95 7.4 359.85 6.25 L359.8 6.2 Q358.65 5.0 357.0 5.0 L9.0 5.0 Q7.3 5.0 6.15 6.2 L6.15 6.25 Q5.0 7.4 5.0 9.0 L5.0 127.0 Q5.0 128.6 6.15 129.8 7.3 131.0 9.0 131.0 L357.0 131.0 Q358.65 131.0 359.8 129.8 L359.85 129.8 Q360.95 128.6 361.0 127.0 L361.0 9.0" fill="#000000" fill-opacity="0.41568628" fill-rule="evenodd" stroke="none"/>
    <path d="M359.1 6.9 L359.15 6.9 Q358.25 6.0 357.0 6.0 L9.0 6.0 Q7.75 6.0 6.85 6.9 6.0 7.75 6.0 9.0 L6.0 127.0 Q6.0 128.25 6.85 129.1 7.75 130.0 9.0 130.0 L357.0 130.0 Q358.25 130.0 359.15 129.1 L359.1 129.1 Q359.95 128.25 360.0 127.0 L360.0 9.0 Q359.95 7.75 359.1 6.9 M361.0 9.0 L361.0 127.0 Q360.95 128.6 359.85 129.8 L359.8 129.8 Q358.65 131.0 357.0 131.0 L9.0 131.0 Q7.3 131.0 6.15 129.8 5.0 128.6 5.0 127.0 L5.0 9.0 Q5.0 7.4 6.15 6.25 L6.15 6.2 Q7.3 5.0 9.0 5.0 L357.0 5.0 Q358.65 5.0 359.8 6.2 L359.85 6.25 Q360.95 7.4 361.0 9.0" fill="#000000" fill-opacity="0.49803922" fill-rule="evenodd" stroke="none"/>
    <path d="M359.1 6.9 Q359.95 7.75 360.0 9.0 L360.0 127.0 Q359.95 128.25 359.1 129.1 L359.15 129.1 Q358.25 130.0 357.0 130.0 L9.0 130.0 Q7.75 130.0 6.85 129.1 6.0 128.25 6.0 127.0 L6.0 9.0 Q6.0 7.75 6.85 6.9 7.75 6.0 9.0 6.0 L357.0 6.0 Q358.25 6.0 359.15 6.9 L359.1 6.9 M358.4 7.6 Q357.8 7.0 357.0 7.0 L9.0 7.0 Q8.15 7.0 7.55 7.6 L7.6 7.6 Q7.0 8.2 7.0 9.05 L7.0 127.0 Q7.0 127.8 7.6 128.4 L7.55 128.4 Q8.15 129.0 9.0 129.0 L357.0 129.0 Q357.8 129.0 358.4 128.4 358.95 127.8 359.0 127.0 L359.0 9.05 Q358.95 8.2 358.4 7.6" fill="#000000" fill-opacity="0.5803922" fill-rule="evenodd" stroke="none"/>
    <path d="M358.4 7.6 Q358.95 8.2 359.0 9.05 L359.0 127.0 Q358.95 127.8 358.4 128.4 357.8 129.0 357.0 129.0 L9.0 129.0 Q8.15 129.0 7.55 128.4 L7.6 128.4 Q7.0 127.8 7.0 127.0 L7.0 9.05 Q7.0 8.2 7.6 7.6 L7.55 7.6 Q8.15 7.0 9.0 7.0 L357.0 7.0 Q357.8 7.0 358.4 7.6" fill="#000000" fill-opacity="0.67058825" fill-rule="evenodd" stroke="none"/>
  </g>
</svg>
