<?xml version="1.0" encoding="UTF-8" standalone="no"?>
<svg xmlns:ffdec="https://www.free-decompiler.com/flash" xmlns:xlink="http://www.w3.org/1999/xlink" ffdec:objectType="shape" height="46.0px" width="336.0px" xmlns="http://www.w3.org/2000/svg">
  <g transform="matrix(1.0, 0.0, 0.0, 1.0, 0.0, 0.0)">
    <path d="M336.0 2.0 L336.0 3.0 0.0 3.0 0.0 2.0 336.0 2.0 M336.0 41.0 L336.0 42.0 0.0 42.0 0.0 41.0 336.0 41.0" fill="#4a4f5a" fill-rule="evenodd" stroke="none"/>
    <path d="M336.0 2.0 L0.0 2.0 0.0 0.0 336.0 0.0 336.0 2.0 M0.0 3.0 L336.0 3.0 336.0 5.0 0.0 5.0 0.0 3.0 M336.0 39.0 L336.0 41.0 0.0 41.0 0.0 39.0 336.0 39.0 M336.0 42.0 L336.0 44.0 0.0 44.0 0.0 42.0 336.0 42.0" fill="#000000" fill-rule="evenodd" stroke="none"/>
    <path d="M336.0 5.0 L336.0 7.0 0.0 7.0 0.0 5.0 336.0 5.0 M336.0 37.0 L336.0 39.0 0.0 39.0 0.0 37.0 336.0 37.0 M336.0 44.0 L336.0 46.0 0.0 46.0 0.0 44.0 336.0 44.0" fill="#25272d" fill-rule="evenodd" stroke="none"/>
    <path d="M336.0 7.0 L336.0 37.0 0.0 37.0 0.0 7.0 336.0 7.0" fill="#101113" fill-rule="evenodd" stroke="none"/>
  </g>
</svg>
