<?xml version="1.0" encoding="UTF-8" standalone="no"?>
<svg xmlns:ffdec="https://www.free-decompiler.com/flash" xmlns:xlink="http://www.w3.org/1999/xlink" ffdec:objectType="shape" height="46.0px" width="7.05px" xmlns="http://www.w3.org/2000/svg">
  <g transform="matrix(1.0, 0.0, 0.0, 1.0, 0.0, 0.0)">
    <path d="M2.0 46.0 L0.0 46.0 0.0 1.05 Q0.0 0.6 0.3 0.3 0.55 0.0 1.0 0.0 L7.05 0.0 7.05 2.0 3.0 2.0 Q2.55 2.0 2.3 2.3 2.0 2.6 2.0 3.0 L2.0 46.0 M7.05 3.0 L7.05 5.0 5.0 5.0 5.0 39.0 7.05 39.0 7.05 41.0 3.0 41.0 3.0 39.0 3.0 3.0 7.05 3.0 M7.05 42.0 L7.05 44.0 5.0 44.0 5.0 46.0 3.0 46.0 3.0 44.0 3.0 42.0 7.05 42.0" fill="#000000" fill-rule="evenodd" stroke="none"/>
    <path d="M7.05 2.0 L7.05 3.0 3.0 3.0 3.0 39.0 3.0 41.0 7.05 41.0 7.05 42.0 3.0 42.0 3.0 44.0 3.0 46.0 2.0 46.0 2.0 3.0 Q2.0 2.6 2.3 2.3 2.55 2.0 3.0 2.0 L7.05 2.0" fill="#4a4f5a" fill-rule="evenodd" stroke="none"/>
    <path d="M7.05 5.0 L7.05 7.0 7.0 7.0 7.0 37.0 7.05 37.0 7.05 39.0 5.0 39.0 5.0 5.0 7.05 5.0 M7.05 44.0 L7.05 46.0 5.0 46.0 5.0 44.0 7.05 44.0" fill="#25272d" fill-rule="evenodd" stroke="none"/>
  </g>
</svg>
