<?xml version="1.0" encoding="UTF-8" standalone="no"?>
<svg xmlns:ffdec="https://www.free-decompiler.com/flash" xmlns:xlink="http://www.w3.org/1999/xlink" ffdec:objectType="shape" height="46.0px" width="7.0px" xmlns="http://www.w3.org/2000/svg">
  <g transform="matrix(1.0, 0.0, 0.0, 1.0, 0.0, 0.0)">
    <path d="M0.0 2.0 L0.0 0.0 6.0 0.0 Q6.4 0.0 6.7 0.3 L7.0 1.05 7.0 46.0 5.0 46.0 5.0 3.0 4.7 2.3 Q4.4 2.0 4.0 2.0 L0.0 2.0 M4.0 46.0 L2.0 46.0 2.0 44.0 0.0 44.0 0.0 42.0 3.9 42.0 3.9 41.0 0.0 41.0 0.0 39.0 2.0 39.0 2.0 5.0 0.0 5.0 0.0 3.0 4.0 3.0 4.0 46.0" fill="#000000" fill-rule="evenodd" stroke="none"/>
    <path d="M0.0 2.0 L4.0 2.0 Q4.4 2.0 4.7 2.3 L5.0 3.0 5.0 46.0 4.0 46.0 4.0 3.0 0.0 3.0 0.0 2.0 M0.0 42.0 L0.0 41.0 3.9 41.0 3.9 42.0 0.0 42.0" fill="#4a4f5a" fill-rule="evenodd" stroke="none"/>
    <path d="M2.0 46.0 L0.0 46.0 0.0 44.0 2.0 44.0 2.0 46.0 M0.0 39.0 L0.0 5.0 2.0 5.0 2.0 39.0 0.0 39.0" fill="#25272d" fill-rule="evenodd" stroke="none"/>
  </g>
</svg>
