<?xml version="1.0" encoding="UTF-8" standalone="no"?>
<svg xmlns:ffdec="https://www.free-decompiler.com/flash" xmlns:xlink="http://www.w3.org/1999/xlink" ffdec:objectType="shape" height="7.0px" width="7.05px" xmlns="http://www.w3.org/2000/svg">
  <g transform="matrix(1.0, 0.0, 0.0, 1.0, 0.0, 0.0)">
    <path d="M7.05 2.0 L7.05 4.0 3.0 4.0 3.0 0.0 5.0 0.0 5.0 2.0 7.05 2.0 M7.05 5.0 L7.05 7.0 1.0 7.0 Q0.55 7.0 0.3 6.7 0.0 6.4 0.0 6.0 L0.0 0.0 2.0 0.0 2.0 4.0 Q2.0 4.4 2.3 4.7 2.55 5.0 3.0 5.0 L7.05 5.0" fill="#000000" fill-rule="evenodd" stroke="none"/>
    <path d="M7.05 2.0 L5.0 2.0 5.0 0.0 7.05 0.0 7.05 2.0" fill="#25272d" fill-rule="evenodd" stroke="none"/>
    <path d="M3.0 0.0 L3.0 4.0 7.05 4.0 7.05 5.0 3.0 5.0 Q2.55 5.0 2.3 4.7 2.0 4.4 2.0 4.0 L2.0 0.0 3.0 0.0" fill="#4a4f5a" fill-rule="evenodd" stroke="none"/>
  </g>
</svg>
