<?xml version="1.0" encoding="UTF-8" standalone="no"?>
<svg xmlns:ffdec="https://www.free-decompiler.com/flash" xmlns:xlink="http://www.w3.org/1999/xlink" ffdec:objectType="shape" height="7.0px" width="7.0px" xmlns="http://www.w3.org/2000/svg">
  <g transform="matrix(1.0, 0.0, 0.0, 1.0, 0.0, 0.0)">
    <path d="M5.0 0.0 L7.0 0.0 7.0 6.0 6.7 6.7 Q6.4 7.0 6.0 7.0 L0.0 7.0 0.0 5.0 4.0 5.0 4.7 4.7 5.0 4.0 5.0 0.0 M0.0 4.0 L0.0 2.0 2.0 2.0 2.0 0.0 4.0 0.0 4.0 4.0 0.0 4.0" fill="#000000" fill-rule="evenodd" stroke="none"/>
    <path d="M0.0 5.0 L0.0 4.0 4.0 4.0 4.0 0.0 5.0 0.0 5.0 4.0 4.7 4.7 4.0 5.0 0.0 5.0" fill="#4a4f5a" fill-rule="evenodd" stroke="none"/>
    <path d="M0.0 2.0 L0.0 0.0 2.0 0.0 2.0 2.0 0.0 2.0" fill="#25272d" fill-rule="evenodd" stroke="none"/>
  </g>
</svg>
