<?xml version="1.0" encoding="UTF-8" standalone="no"?>
<svg xmlns:ffdec="https://www.free-decompiler.com/flash" xmlns:xlink="http://www.w3.org/1999/xlink" ffdec:objectType="shape" height="44.0px" width="47.0px" xmlns="http://www.w3.org/2000/svg">
  <g transform="matrix(1.0, 0.0, 0.0, 1.0, 24.5, 22.0)">
    <path d="M10.5 -17.0 L10.5 17.0 -24.5 17.0 -24.5 -17.0 10.5 -17.0" fill="#25272d" fill-rule="evenodd" stroke="none"/>
    <path d="M-22.5 -20.0 L-22.5 -22.0 21.5 -22.0 22.2 -21.7 22.5 -20.95 22.5 22.0 20.5 22.0 20.5 -19.0 20.2 -19.7 Q19.9 -20.0 19.5 -20.0 L-22.5 -20.0 M19.5 22.0 L-22.5 22.0 -22.5 20.0 19.5 20.0 19.5 22.0 M-22.5 19.0 L-22.5 -19.0 -20.5 -19.0 -20.5 19.0 -22.5 19.0 M17.5 -17.0 L-17.5 -17.0 -17.5 17.0 17.5 17.0 17.5 -17.0 M19.5 -19.0 L19.5 19.0 -19.5 19.0 -19.5 -19.0 19.5 -19.0" fill="#000000" fill-rule="evenodd" stroke="none"/>
    <path d="M-22.5 -20.0 L19.5 -20.0 Q19.9 -20.0 20.2 -19.7 L20.5 -19.0 20.5 22.0 19.5 22.0 19.5 20.0 -22.5 20.0 -22.5 19.0 -20.5 19.0 -20.5 -19.0 -22.5 -19.0 -22.5 -20.0 M19.5 -19.0 L-19.5 -19.0 -19.5 19.0 19.5 19.0 19.5 -19.0" fill="#4a4f5a" fill-rule="evenodd" stroke="none"/>
    <path d="M17.5 -17.0 L17.5 17.0 -17.5 17.0 -17.5 -17.0 17.5 -17.0" fill="#25272d" fill-rule="evenodd" stroke="none"/>
  </g>
</svg>
