<?xml version="1.0" encoding="UTF-8" standalone="no"?>
<svg xmlns:ffdec="https://www.free-decompiler.com/flash" xmlns:xlink="http://www.w3.org/1999/xlink" ffdec:objectType="shape" height="64.0px" width="200.0px" xmlns="http://www.w3.org/2000/svg">
  <g transform="matrix(1.0, 0.0, 0.0, 1.0, 100.0, 32.0)">
    <path d="M57.5 -8.0 L58.55 -8.0 95.0 -8.0 95.0 -27.0 -36.0 -27.0 -36.0 -8.0 53.5 -8.0 55.25 -8.0 57.0 -8.0 57.5 -8.0 M96.9 -5.0 L96.9 -6.0 -38.0 -6.0 -38.0 -28.95 -39.0 -28.95 -39.0 29.0 -97.0 29.0 -97.0 -3.0 -97.1 -3.0 -97.1 -8.0 -97.0 -8.0 -97.0 -29.0 97.0 -29.0 97.0 29.0 -38.0 29.0 -38.0 -5.0 96.9 -5.0 M99.7 -31.7 L100.0 -30.95 100.0 31.0 99.7 31.7 99.0 32.0 -99.0 32.0 -99.7 31.7 -100.0 31.0 -100.0 -30.95 -99.7 -31.7 -99.0 -32.0 99.0 -32.0 99.7 -31.7 M97.7 -29.7 Q97.4 -30.0 97.0 -30.0 L-97.0 -30.0 Q-97.45 -30.0 -97.7 -29.7 L-98.0 -29.0 -98.0 29.0 -97.7 29.7 Q-97.45 30.0 -97.0 30.0 L97.0 30.0 Q97.4 30.0 97.7 29.7 L98.0 29.0 98.0 -29.0 97.7 -29.7 M95.0 -3.0 L-36.0 -3.0 -36.0 27.0 95.0 27.0 95.0 -3.0 M-41.0 -3.0 L-41.0 -27.0 -95.0 -27.0 -95.0 27.0 -41.0 27.0 -41.0 5.9 -41.0 4.0 -41.0 -3.0" fill="#000000" fill-rule="evenodd" stroke="none"/>
    <path d="M57.5 -8.0 L57.0 -8.0 55.25 -8.0 53.5 -8.0 -36.0 -8.0 -36.0 -27.0 95.0 -27.0 95.0 -8.0 58.55 -8.0 57.5 -8.0 M93.0 -25.0 L-34.0 -25.0 -34.0 -10.0 93.0 -10.0 93.0 -25.0 M95.0 -3.0 L95.0 27.0 -36.0 27.0 -36.0 -3.0 95.0 -3.0 M-41.0 -3.0 L-41.0 4.0 -41.0 5.9 -41.0 27.0 -95.0 27.0 -95.0 -27.0 -41.0 -27.0 -41.0 -3.0" fill="#25272d" fill-rule="evenodd" stroke="none"/>
    <path d="M96.9 -5.0 L-38.0 -5.0 -38.0 29.0 97.0 29.0 97.0 -29.0 -97.0 -29.0 -97.0 -8.0 -97.1 -8.0 -97.1 -3.0 -97.0 -3.0 -97.0 29.0 -39.0 29.0 -39.0 -28.95 -38.0 -28.95 -38.0 -6.0 96.9 -6.0 96.9 -5.0 M97.7 -29.7 L98.0 -29.0 98.0 29.0 97.7 29.7 Q97.4 30.0 97.0 30.0 L-97.0 30.0 Q-97.45 30.0 -97.7 29.7 L-98.0 29.0 -98.0 -29.0 -97.7 -29.7 Q-97.45 -30.0 -97.0 -30.0 L97.0 -30.0 Q97.4 -30.0 97.7 -29.7" fill="#4a4f5a" fill-rule="evenodd" stroke="none"/>
    <path d="M93.0 -25.0 L93.0 -10.0 -34.0 -10.0 -34.0 -25.0 93.0 -25.0" fill="#101113" fill-rule="evenodd" stroke="none"/>
  </g>
</svg>
