<?xml version="1.0" encoding="UTF-8" standalone="no"?>
<svg xmlns:ffdec="https://www.free-decompiler.com/flash" xmlns:xlink="http://www.w3.org/1999/xlink" ffdec:objectType="shape" height="57.65px" width="340.8px" xmlns="http://www.w3.org/2000/svg">
  <g transform="matrix(1.0, 0.0, 0.0, 1.0, 17.6, -93.75)">
    <path d="M-4.05 129.3 L-4.05 131.15 -3.85 133.7 -3.35 135.7 -2.75 136.7 8.7 136.7 8.7 134.3 -0.45 134.3 -0.45 124.45 18.05 124.45 18.05 147.4 -8.55 147.4 Q-11.45 145.85 -12.4 143.0 -13.15 140.1 -13.6 134.65 L-13.6 123.85 Q-12.55 116.7 -11.0 113.85 -9.55 111.2 -6.4 111.2 L18.05 111.2 18.05 122.05 -2.45 122.05 Q-3.1 122.05 -3.35 122.85 L-3.85 124.9 -4.05 127.4 -4.05 129.3 M37.2 130.6 L41.55 130.6 39.25 123.4 37.2 130.6 M33.8 111.2 L43.9 111.2 58.9 147.4 48.4 147.4 45.2 140.65 33.15 140.65 30.35 147.4 19.7 147.4 33.8 111.2 M89.25 111.2 L101.0 111.2 101.0 147.4 92.35 147.4 92.35 129.3 84.8 147.4 76.15 147.4 68.15 128.7 68.15 147.4 60.05 147.4 60.05 111.2 70.05 111.2 80.45 132.45 89.25 111.2 M132.8 111.2 L132.8 121.8 113.15 121.8 113.15 124.45 132.8 124.45 132.8 135.15 113.0 135.15 113.0 137.25 132.8 137.25 132.8 147.4 103.8 147.4 103.8 111.95 105.0 111.2 132.8 111.2 M160.15 127.05 Q161.05 123.95 160.2 122.05 L145.0 122.05 145.0 127.05 160.15 127.05 M170.2 115.15 Q170.85 117.4 170.85 119.45 L170.85 122.35 170.85 131.45 Q169.95 135.05 168.85 136.55 167.75 138.0 165.5 138.6 L144.25 138.6 144.25 147.4 135.65 147.4 135.65 111.2 165.35 111.2 Q169.5 112.9 170.2 115.15 M173.95 111.95 L175.15 111.2 183.1 111.2 183.1 147.4 173.95 147.4 173.95 111.95 M195.25 122.05 L195.25 127.05 210.35 127.05 Q211.35 123.95 210.4 122.05 L195.25 122.05 M215.55 111.2 Q219.7 112.9 220.45 115.15 221.1 117.4 221.1 119.45 L221.1 122.35 220.25 128.45 Q219.85 130.65 218.8 132.55 217.7 134.3 215.9 135.55 L221.9 145.7 221.9 147.4 213.05 147.4 206.7 138.6 194.45 138.6 194.45 147.4 185.9 147.4 185.9 111.2 215.55 111.2 M238.25 111.2 L248.4 111.2 262.85 146.2 262.85 147.4 252.85 147.4 249.65 140.65 237.6 140.65 234.8 147.4 224.2 147.4 238.25 111.2 M243.7 123.4 L241.7 130.6 246.05 130.6 243.7 123.4 M266.85 105.6 L270.95 105.6 270.95 108.85 266.85 108.85 266.85 105.6 M287.3 111.2 L287.3 121.8 277.8 121.8 277.8 147.4 267.75 147.4 267.75 121.8 258.3 121.8 258.3 111.95 259.5 111.2 287.3 111.2 M276.5 101.1 L276.15 101.35 275.95 101.95 275.85 102.75 275.85 103.3 275.85 103.9 275.95 104.65 276.15 105.25 276.5 105.5 284.95 105.5 284.95 108.85 274.0 108.85 Q272.8 108.4 272.45 107.5 272.1 106.65 271.95 104.95 L271.95 101.65 Q272.35 99.45 273.0 98.6 273.6 97.75 274.9 97.75 L284.95 97.75 284.95 101.1 276.5 101.1 M296.8 103.3 L296.75 102.25 Q296.65 101.5 296.15 101.5 L290.5 101.5 Q290.0 101.5 289.95 102.25 L289.9 103.3 289.95 104.4 Q290.0 105.1 290.5 105.1 L296.15 105.1 Q296.65 105.1 296.75 104.35 L296.8 103.3 M300.6 101.65 L300.6 104.95 Q300.35 107.05 299.9 107.95 299.5 108.85 298.6 108.85 L288.05 108.85 Q287.15 108.85 286.75 107.95 286.35 107.05 286.1 104.95 L286.1 101.65 286.3 99.9 Q286.55 99.0 287.1 98.4 287.7 97.75 288.9 97.75 L297.8 97.75 Q298.95 97.75 299.55 98.4 300.15 99.05 300.35 99.9 L300.6 101.65 M319.2 111.2 L319.2 121.8 299.5 121.8 299.5 124.45 319.2 124.45 319.2 135.15 299.35 135.15 299.35 137.25 319.2 137.25 319.2 147.4 290.15 147.4 290.15 111.95 291.35 111.2 319.2 111.2 M318.5 108.85 L314.95 108.85 314.95 103.3 311.85 108.85 308.3 108.85 305.0 103.15 305.0 108.85 301.65 108.85 301.65 97.75 305.8 97.75 310.05 104.3 313.7 97.75 318.5 97.75 318.5 108.85" fill="#ffffff" fill-rule="evenodd" stroke="none"/>
    <path d="M318.5 108.85 L318.5 97.75 313.7 97.75 310.05 104.3 305.8 97.75 301.65 97.75 301.65 108.85 305.0 108.85 305.0 103.15 308.3 108.85 311.85 108.85 314.95 103.3 314.95 108.85 318.5 108.85 M319.2 111.2 L291.35 111.2 290.15 111.95 290.15 147.4 319.2 147.4 319.2 137.25 299.35 137.25 299.35 135.15 319.2 135.15 319.2 124.45 299.5 124.45 299.5 121.8 319.2 121.8 319.2 111.2 M300.6 101.65 L300.35 99.9 Q300.15 99.05 299.55 98.4 298.95 97.75 297.8 97.75 L288.9 97.75 Q287.7 97.75 287.1 98.4 286.55 99.0 286.3 99.9 L286.1 101.65 286.1 104.95 Q286.35 107.05 286.75 107.95 287.15 108.85 288.05 108.85 L298.6 108.85 Q299.5 108.85 299.9 107.95 300.35 107.05 300.6 104.95 L300.6 101.65 M296.8 103.3 L296.75 104.35 Q296.65 105.1 296.15 105.1 L290.5 105.1 Q290.0 105.1 289.95 104.4 L289.9 103.3 289.95 102.25 Q290.0 101.5 290.5 101.5 L296.15 101.5 Q296.65 101.5 296.75 102.25 L296.8 103.3 M276.5 101.1 L284.95 101.1 284.95 97.75 274.9 97.75 Q273.6 97.75 273.0 98.6 272.35 99.45 271.95 101.65 L271.95 104.95 Q272.1 106.65 272.45 107.5 272.8 108.4 274.0 108.85 L284.95 108.85 284.95 105.5 276.5 105.5 276.15 105.25 275.95 104.65 275.85 103.9 275.85 103.3 275.85 102.75 275.95 101.95 276.15 101.35 276.5 101.1 M287.3 111.2 L259.5 111.2 258.3 111.95 258.3 121.8 267.75 121.8 267.75 147.4 277.8 147.4 277.8 121.8 287.3 121.8 287.3 111.2 M266.85 105.6 L266.85 108.85 270.95 108.85 270.95 105.6 266.85 105.6 M243.7 123.4 L246.05 130.6 241.7 130.6 243.7 123.4 M238.25 111.2 L224.2 147.4 234.8 147.4 237.6 140.65 249.65 140.65 252.85 147.4 262.85 147.4 262.85 146.2 248.4 111.2 238.25 111.2 M215.55 111.2 L185.9 111.2 185.9 147.4 194.45 147.4 194.45 138.6 206.7 138.6 213.05 147.4 221.9 147.4 221.9 145.7 215.9 135.55 Q217.7 134.3 218.8 132.55 219.85 130.65 220.25 128.45 L221.1 122.35 221.1 119.45 Q221.1 117.4 220.45 115.15 219.7 112.9 215.55 111.2 M195.25 122.05 L210.4 122.05 Q211.35 123.95 210.35 127.05 L195.25 127.05 195.25 122.05 M173.95 111.95 L173.95 147.4 183.1 147.4 183.1 111.2 175.15 111.2 173.95 111.95 M170.2 115.15 Q169.5 112.9 165.35 111.2 L135.65 111.2 135.65 147.4 144.25 147.4 144.25 138.6 165.5 138.6 Q167.75 138.0 168.85 136.55 169.95 135.05 170.85 131.45 L170.85 122.35 170.85 119.45 Q170.85 117.4 170.2 115.15 M160.15 127.05 L145.0 127.05 145.0 122.05 160.2 122.05 Q161.05 123.95 160.15 127.05 M132.8 111.2 L105.0 111.2 103.8 111.95 103.8 147.4 132.8 147.4 132.8 137.25 113.0 137.25 113.0 135.15 132.8 135.15 132.8 124.45 113.15 124.45 113.15 121.8 132.8 121.8 132.8 111.2 M89.25 111.2 L80.45 132.45 70.05 111.2 60.05 111.2 60.05 147.4 68.15 147.4 68.15 128.7 76.15 147.4 84.8 147.4 92.35 129.3 92.35 147.4 101.0 147.4 101.0 111.2 89.25 111.2 M33.8 111.2 L19.7 147.4 30.35 147.4 33.15 140.65 45.2 140.65 48.4 147.4 58.9 147.4 43.9 111.2 33.8 111.2 M37.2 130.6 L39.25 123.4 41.55 130.6 37.2 130.6 M-4.05 129.3 L-4.05 127.4 -3.85 124.9 -3.35 122.85 Q-3.1 122.05 -2.45 122.05 L18.05 122.05 18.05 111.2 -6.4 111.2 Q-9.55 111.2 -11.0 113.85 -12.55 116.7 -13.6 123.85 L-13.6 134.65 Q-13.15 140.1 -12.4 143.0 -11.45 145.85 -8.55 147.4 L18.05 147.4 18.05 124.45 -0.45 124.45 -0.45 134.3 8.7 134.3 8.7 136.7 -2.75 136.7 -3.35 135.7 -3.85 133.7 -4.05 131.15 -4.05 129.3 Z" fill="none" stroke="#000000" stroke-linecap="round" stroke-linejoin="round" stroke-width="8.0"/>
    <path d="M132.8 124.45 L132.8 135.15 113.0 135.15 113.0 137.25 132.8 137.25 132.8 147.4 103.8 147.4 103.8 111.95 105.0 111.2 132.8 111.2 132.8 121.8 113.15 121.8 113.15 124.45 132.8 124.45 M18.05 111.2 L18.05 122.05 -2.45 122.05 Q-3.1 122.05 -3.35 122.85 L-3.85 124.9 -4.05 127.4 -4.05 129.3 -4.05 131.15 -3.85 133.7 -3.35 135.7 -2.75 136.7 8.7 136.7 8.7 134.3 -0.45 134.3 -0.45 124.45 18.05 124.45 18.05 147.4 -8.55 147.4 Q-11.45 145.85 -12.4 143.0 -13.15 140.1 -13.6 134.65 L-13.6 123.85 Q-12.55 116.7 -11.0 113.85 -9.55 111.2 -6.4 111.2 L18.05 111.2 M60.05 147.4 L60.05 111.2 70.05 111.2 80.45 132.45 89.25 111.2 101.0 111.2 101.0 147.4 92.35 147.4 92.35 129.3 84.8 147.4 76.15 147.4 68.15 128.7 68.15 147.4 60.05 147.4 M37.2 130.6 L41.55 130.6 39.25 123.4 37.2 130.6 M33.8 111.2 L43.9 111.2 58.9 147.4 48.4 147.4 45.2 140.65 33.15 140.65 30.35 147.4 19.7 147.4 33.8 111.2 M237.6 140.65 L234.8 147.4 224.2 147.4 238.25 111.2 248.4 111.2 262.85 146.2 262.85 147.4 252.85 147.4 249.65 140.65 237.6 140.65 M243.7 123.4 L241.7 130.6 246.05 130.6 243.7 123.4 M287.3 111.2 L287.3 121.8 277.8 121.8 277.8 147.4 267.75 147.4 267.75 121.8 258.3 121.8 258.3 111.95 259.5 111.2 287.3 111.2 M160.15 127.05 Q161.05 123.95 160.2 122.05 L145.0 122.05 145.0 127.05 160.15 127.05 M170.85 119.45 L170.85 122.35 170.85 131.45 Q169.95 135.05 168.85 136.55 167.75 138.0 165.5 138.6 L144.25 138.6 144.25 147.4 135.65 147.4 135.65 111.2 165.35 111.2 Q169.5 112.9 170.2 115.15 170.85 117.4 170.85 119.45 M175.15 111.2 L183.1 111.2 183.1 147.4 173.95 147.4 173.95 111.95 175.15 111.2 M210.35 127.05 Q211.35 123.95 210.4 122.05 L195.25 122.05 195.25 127.05 210.35 127.05 M215.55 111.2 Q219.7 112.9 220.45 115.15 221.1 117.4 221.1 119.45 L221.1 122.35 220.25 128.45 Q219.85 130.65 218.8 132.55 217.7 134.3 215.9 135.55 L221.9 145.7 221.9 147.4 213.05 147.4 206.7 138.6 194.45 138.6 194.45 147.4 185.9 147.4 185.9 111.2 215.55 111.2 M296.75 102.25 Q296.65 101.5 296.15 101.5 L290.5 101.5 Q290.0 101.5 289.95 102.25 L289.9 103.3 289.95 104.4 Q290.0 105.1 290.5 105.1 L296.15 105.1 Q296.65 105.1 296.75 104.35 L296.8 103.3 296.75 102.25 M286.1 104.95 L286.1 101.65 286.3 99.9 Q286.55 99.0 287.1 98.4 287.7 97.75 288.9 97.75 L297.8 97.75 Q298.95 97.75 299.55 98.4 300.15 99.05 300.35 99.9 L300.6 101.65 300.6 104.95 Q300.35 107.05 299.9 107.95 299.5 108.85 298.6 108.85 L288.05 108.85 Q287.15 108.85 286.75 107.95 286.35 107.05 286.1 104.95 M273.0 98.6 Q273.6 97.75 274.9 97.75 L284.95 97.75 284.95 101.1 276.5 101.1 276.15 101.35 275.95 101.95 275.85 102.75 275.85 103.3 275.85 103.9 275.95 104.65 276.15 105.25 276.5 105.5 284.95 105.5 284.95 108.85 274.0 108.85 Q272.8 108.4 272.45 107.5 272.1 106.65 271.95 104.95 L271.95 101.65 Q272.35 99.45 273.0 98.6 M266.85 108.85 L266.85 105.6 270.95 105.6 270.95 108.85 266.85 108.85 M319.2 137.25 L319.2 147.4 290.15 147.4 290.15 111.95 291.35 111.2 319.2 111.2 319.2 121.8 299.5 121.8 299.5 124.45 319.2 124.45 319.2 135.15 299.35 135.15 299.35 137.25 319.2 137.25 M314.95 108.85 L314.95 103.3 311.85 108.85 308.3 108.85 305.0 103.15 305.0 108.85 301.65 108.85 301.65 97.75 305.8 97.75 310.05 104.3 313.7 97.75 318.5 97.75 318.5 108.85 314.95 108.85" fill="#ffffff" fill-rule="evenodd" stroke="none"/>
  </g>
</svg>
